<?xml version="1.0" encoding="UTF-8" standalone="no"?>
<!-- Created with Inkscape (http://www.inkscape.org/) -->

<svg
   xmlns:dc="http://purl.org/dc/elements/1.1/"
   xmlns:cc="http://creativecommons.org/ns#"
   xmlns:rdf="http://www.w3.org/1999/02/22-rdf-syntax-ns#"
   xmlns:svg="http://www.w3.org/2000/svg"
   xmlns="http://www.w3.org/2000/svg"
   xmlns:xlink="http://www.w3.org/1999/xlink"
   xmlns:sodipodi="http://sodipodi.sourceforge.net/DTD/sodipodi-0.dtd"
   xmlns:inkscape="http://www.inkscape.org/namespaces/inkscape"
   width="48.000000px"
   height="48.000000px"
   id="svg53383"
   sodipodi:version="0.32"
   inkscape:version="0.47pre4 r22446"
   sodipodi:docname="applications-system.svg"
   inkscape:output_extension="org.inkscape.output.svg.inkscape"
   version="1.1">
  <defs
     id="defs3">
    <inkscape:perspective
       sodipodi:type="inkscape:persp3d"
       inkscape:vp_x="0 : 24 : 1"
       inkscape:vp_y="0 : 1000 : 0"
       inkscape:vp_z="48 : 24 : 1"
       inkscape:persp3d-origin="24 : 16 : 1"
       id="perspective31" />
    <linearGradient
       id="linearGradient3264">
      <stop
         style="stop-color:#c9c9c9;stop-opacity:1;"
         offset="0"
         id="stop3266" />
      <stop
         id="stop3276"
         offset="0.25"
         style="stop-color:#f8f8f8;stop-opacity:1;" />
      <stop
         id="stop3272"
         offset="0.5"
         style="stop-color:#e2e2e2;stop-opacity:1;" />
      <stop
         style="stop-color:#b0b0b0;stop-opacity:1;"
         offset="0.75"
         id="stop3274" />
      <stop
         style="stop-color:#c9c9c9;stop-opacity:1;"
         offset="1"
         id="stop3268" />
    </linearGradient>
    <linearGradient
       inkscape:collect="always"
       xlink:href="#linearGradient3264"
       id="linearGradient3281"
       gradientUnits="userSpaceOnUse"
       x1="14.462892"
       y1="12.284524"
       x2="34.534348"
       y2="39.684914"
       gradientTransform="matrix(1.241935,0,0,1.241935,-5.027508,-7.208988)" />
    <linearGradient
       id="linearGradient2300">
      <stop
         id="stop2302"
         offset="0.0000000"
         style="stop-color:#000000;stop-opacity:0.32673267;" />
      <stop
         id="stop2304"
         offset="1"
         style="stop-color:#000000;stop-opacity:0;" />
    </linearGradient>
    <linearGradient
       id="aigrd1"
       gradientUnits="userSpaceOnUse"
       x1="99.7773"
       y1="15.4238"
       x2="153.0005"
       y2="248.6311">
      <stop
         offset="0"
         style="stop-color:#184375"
         id="stop53300" />
      <stop
         offset="1"
         style="stop-color:#C8BDDC"
         id="stop53302" />
    </linearGradient>
    <linearGradient
       inkscape:collect="always"
       xlink:href="#aigrd1"
       id="linearGradient53551"
       gradientUnits="userSpaceOnUse"
       x1="99.7773"
       y1="15.4238"
       x2="153.0005"
       y2="248.6311"
       gradientTransform="matrix(0.200685,0.000000,0.000000,0.200685,-0.585758,-1.050787)" />
    <linearGradient
       inkscape:collect="always"
       xlink:href="#linearGradient3264"
       id="linearGradient3760"
       gradientUnits="userSpaceOnUse"
       gradientTransform="matrix(1.241935,0,0,1.241935,-5.027508,-7.208988)"
       x1="14.462892"
       y1="12.284524"
       x2="34.534348"
       y2="39.684914" />
    <linearGradient
       id="RSSg"
       y2="225.94001"
       x2="225.94001"
       y1="30.06"
       x1="30.06"
       gradientUnits="userSpaceOnUse">
      <stop
         id="stop2861"
         stop-color="#E3702D"
         offset="0"
         style="stop-color:#5f6db1;stop-opacity:1;" />
      <stop
         id="stop2863"
         stop-color="#EA7D31"
         offset="0.1071"
         style="stop-color:#6c79b8;stop-opacity:1;" />
      <stop
         id="stop2865"
         stop-color="#F69537"
         offset="0.35030001"
         style="stop-color:#959dcb;stop-opacity:1;" />
      <stop
         id="stop2867"
         stop-color="#FB9E3A"
         offset="0.5"
         style="stop-color:#919bca;stop-opacity:1;" />
      <stop
         id="stop2869"
         stop-color="#EA7C31"
         offset="0.70160002"
         style="stop-color:#7884be;stop-opacity:1;" />
      <stop
         id="stop2871"
         stop-color="#DE642B"
         offset="0.88660002"
         style="stop-color:#6673b4;stop-opacity:1;" />
      <stop
         id="stop2873"
         stop-color="#D95B29"
         offset="1"
         style="stop-color:#4f5da3;stop-opacity:1;" />
    </linearGradient>
    <inkscape:perspective
       id="perspective2891"
       inkscape:persp3d-origin="64 : 42.666667 : 1"
       inkscape:vp_z="128 : 64 : 1"
       inkscape:vp_y="0 : 1000 : 0"
       inkscape:vp_x="0 : 64 : 1"
       sodipodi:type="inkscape:persp3d" />
    <linearGradient
       inkscape:collect="always"
       xlink:href="#RSSg"
       id="linearGradient2931"
       gradientUnits="userSpaceOnUse"
       x1="30.059999"
       y1="30.059999"
       x2="225.94"
       y2="225.94"
       gradientTransform="matrix(0.5,0,0,0.5,91.563493,-51.178562)" />
    <inkscape:perspective
       id="perspective3755"
       inkscape:persp3d-origin="0.5 : 0.33333333 : 1"
       inkscape:vp_z="1 : 0.5 : 1"
       inkscape:vp_y="0 : 1000 : 0"
       inkscape:vp_x="0 : 0.5 : 1"
       sodipodi:type="inkscape:persp3d" />
    <radialGradient
       inkscape:collect="always"
       xlink:href="#linearGradient2300"
       id="radialGradient3885"
       gradientUnits="userSpaceOnUse"
       gradientTransform="matrix(1.399258,-2.234445e-7,8.196178e-8,0.513264,4.365074,4.839285)"
       cx="14.287618"
       cy="68.872971"
       fx="14.287618"
       fy="72.568001"
       r="11.689870" />
    <linearGradient
       inkscape:collect="always"
       xlink:href="#aigrd1"
       id="linearGradient3887"
       gradientUnits="userSpaceOnUse"
       gradientTransform="matrix(0.43066969,0,0,0.43066969,-28.86771,-166.92482)"
       x1="99.7773"
       y1="15.4238"
       x2="153.0005"
       y2="248.6311" />
  </defs>
  <sodipodi:namedview
     inkscape:showpageshadow="false"
     id="base"
     pagecolor="#ffffff"
     bordercolor="#666666"
     borderopacity="0.11764706"
     inkscape:pageopacity="0.0"
     inkscape:pageshadow="2"
     inkscape:zoom="1.4142136"
     inkscape:cx="26.49733"
     inkscape:cy="93.895376"
     inkscape:current-layer="layer1"
     showgrid="false"
     inkscape:grid-bbox="true"
     inkscape:document-units="px"
     inkscape:window-width="1280"
     inkscape:window-height="928"
     inkscape:window-x="0"
     inkscape:window-y="22"
     inkscape:window-maximized="1" />
  <metadata
     id="metadata4">
    <rdf:RDF>
      <cc:Work
         rdf:about="">
        <dc:format>image/svg+xml</dc:format>
        <dc:type
           rdf:resource="http://purl.org/dc/dcmitype/StillImage" />
        <dc:title></dc:title>
        <dc:creator>
          <cc:Agent>
            <dc:title>Jakub Steiner</dc:title>
          </cc:Agent>
        </dc:creator>
        <dc:source>http://jimmac.musichall.cz/</dc:source>
        <dc:subject>
          <rdf:Bag>
            <rdf:li>system</rdf:li>
            <rdf:li>applications</rdf:li>
            <rdf:li>group</rdf:li>
            <rdf:li>category</rdf:li>
            <rdf:li>admin</rdf:li>
            <rdf:li>root</rdf:li>
          </rdf:Bag>
        </dc:subject>
        <cc:license
           rdf:resource="http://creativecommons.org/licenses/publicdomain/" />
      </cc:Work>
      <cc:License
         rdf:about="http://creativecommons.org/licenses/publicdomain/">
        <cc:permits
           rdf:resource="http://creativecommons.org/ns#Reproduction" />
        <cc:permits
           rdf:resource="http://creativecommons.org/ns#Distribution" />
        <cc:permits
           rdf:resource="http://creativecommons.org/ns#DerivativeWorks" />
      </cc:License>
    </rdf:RDF>
  </metadata>
  <g
     inkscape:label="shadow"
     id="layer2"
     inkscape:groupmode="layer" />
  <g
     id="layer1"
     inkscape:label="Layer 1"
     inkscape:groupmode="layer">
    <g
       id="g2935"
       transform="translate(133.64318,99.702057)">
      <circle
         transform="matrix(0.5,0,0,0.5,91.563493,-51.178562)"
         id="circle2881"
         r="24"
         cy="189"
         cx="68"
         sodipodi:cx="68"
         sodipodi:cy="189"
         sodipodi:rx="24"
         sodipodi:ry="24"
         style="fill:#ffffff"
         d="m 92,189 c 0,13.25483 -10.745166,24 -24,24 -13.254834,0 -24,-10.74517 -24,-24 0,-13.25483 10.745166,-24 24,-24 13.254834,0 24,10.74517 24,24 z" />
      <path
         id="path2883"
         d="m 171.56349,55.321438 h -17 a 41,41 0 0 0 -41,-41 v -17 a 58,58 0 0 1 58,58 z"
         style="fill:#ffffff" />
      <path
         id="path2885"
         d="m 183.56349,55.321438 a 70,70 0 0 0 -70,-70 v -17.5 a 87.5,87.5 0 0 1 87.5,87.5 z"
         style="fill:#ffffff" />
    </g>
    <g
       id="g3889"
       inkscape:export-filename="/home/dave/git/planZilla/icon48.png"
       inkscape:export-xdpi="33.75"
       inkscape:export-ydpi="33.75">
      <g
         id="g3742">
        <rect
           style="fill:#4a5696;fill-opacity:1"
           width="128"
           height="128"
           rx="27.5"
           ry="27.5"
           x="91.563492"
           y="-51.178562"
           id="rect2875" />
        <rect
           style="fill:#7182d5;fill-opacity:1"
           width="123"
           height="123"
           rx="25"
           ry="25"
           x="94.063492"
           y="-48.678562"
           id="rect2877" />
        <rect
           style="fill:url(#linearGradient2931);fill-opacity:1.0"
           width="118"
           height="118"
           rx="23.5"
           ry="23.5"
           x="96.563492"
           y="-46.178562"
           id="rect2879" />
      </g>
      <g
         transform="matrix(1.1146398,0,0,1.1146398,-0.49402494,140.26781)"
         id="g3859">
        <g
           id="g3809"
           transform="matrix(0.40337865,0,0,0.39601296,157.51043,-100.15924)">
          <path
             style="fill:#fdfbf9"
             d="m -101.03301,-31.195961 0,-48 48,0 48,0 0,48 0,48 -48,0 -48,0 0,-48 z"
             id="path3841" />
          <path
             style="fill:#f4d8ab"
             d="m -97.575382,11.554039 c -0.263781,-0.6875 -0.362158,-20.6 -0.218615,-44.25 l 0.260987,-43 44,0 44,0 0.260402,44.25 0.260402,44.25 -44.041787,0 c -34.310975,0 -44.147752,-0.276181 -44.521389,-1.25 z M -79.03301,-7.531267 c 1.375,-1.699076 1.825,-2.700262 1,-2.224858 -2.507381,1.444874 -5.131986,3.938265 -6.152282,5.844706 -0.843217,1.575564 -0.735328,1.657272 0.842624,0.638151 0.995312,-0.642823 2.934658,-2.558922 4.309658,-4.257999 z m 63.085706,-29.824837 c 1.563891,-2.922156 0.228082,-5.466506 -3.872467,-7.375987 -2.042281,-0.951019 -4.019645,-1.901783 -4.394141,-2.112809 -0.374496,-0.211027 -1.006524,0.143184 -1.404508,0.787136 -0.451923,0.731227 -0.290138,0.902922 0.430902,0.457295 1.575246,-0.973556 1.398654,0.498042 -0.334444,2.787034 -1.234285,1.630185 -1.232842,2.254784 0.01076,4.659654 0.789859,1.52742 1.991092,2.962121 2.669406,3.188226 2.302827,0.767609 5.865383,-0.467648 6.894488,-2.390549 z m -23.094803,-6.328895 c 1.600773,-1.928814 0.64936,-6.971355 -2.171856,-11.510962 l -2.175135,-3.5 -0.662379,3.08729 c -0.914114,4.260604 -1.778716,5.41271 -4.061989,5.41271 -3.211317,0 -4.588818,-4.373307 -2.654893,-8.428789 1.441953,-3.023808 1.447741,-3.352031 0.0555,-3.147694 -1.893823,0.277954 -4.320151,5.73892 -4.320151,9.723411 0,1.60452 0.652038,4.477856 1.448973,6.385191 1.422398,3.404276 1.55771,3.467881 7.377556,3.467881 4.030502,0 6.32423,-0.476727 7.164374,-1.489038 z m -7.990903,-14.569979 c 0,-0.517541 -0.45,-0.940983 -1,-0.940983 -0.55,0 -1,0.701558 -1,1.559017 0,0.857459 0.45,1.280902 1,0.940983 0.55,-0.339919 1,-1.041476 1,-1.559017 z"
             id="path3839" />
          <path
             style="fill:#d0b499"
             d="m -97.575382,11.554039 c -0.263781,-0.6875 -0.362158,-20.6 -0.218615,-44.25 l 0.260987,-43 44,0 44,0 0.260402,44.25 0.260402,44.25 -44.041787,0 c -34.310975,0 -44.147752,-0.276181 -44.521389,-1.25 z M -78.53301,-8.036976 c 1.65,-1.955821 2.325,-3.174756 1.5,-2.708745 -2.402694,1.35719 -6.101932,4.898149 -7.151481,6.845491 -0.845068,1.567947 -0.738285,1.645008 0.841823,0.607512 0.995312,-0.653521 3.159658,-2.788437 4.809658,-4.744258 z m 22.496319,-8.145314 c 0.715071,-2.655573 1.979801,-4.478272 3.788544,-5.459963 2.712663,-1.47229 2.710756,-1.473669 -2.09388,-1.51367 -2.942528,-0.0245 -4.569144,-0.428161 -4.190983,-1.040038 0.930248,-1.505173 6.831651,-1.203235 12.215053,0.624968 3.534322,1.200256 6.938376,1.490723 13.024062,1.11134 10.50579,-0.654933 16.958269,-3.594486 19.556468,-8.909332 2.770733,-5.667783 0.741658,-9.4011 -8.456788,-15.559735 -10.799756,-7.230761 -10.242917,-7.013526 -9.403354,-3.668444 0.996244,3.969353 0.358242,3.099765 -4.10774,-5.598797 -2.91258,-5.672941 -4.724683,-7.969492 -7.438611,-9.427247 -3.582223,-1.92415 -3.597067,-1.923563 -9.236028,0.365123 -3.315835,1.345799 -6.961782,3.788643 -8.829612,5.915985 -2.625595,2.990387 -3.076657,3.222407 -2.581187,1.327725 0.490924,-1.877294 0.347077,-2.085658 -0.788967,-1.142825 -0.764145,0.634184 -1.331075,1.447402 -1.259844,1.807151 0.07123,0.359748 -0.393156,1.920883 -1.03197,3.469188 -0.638815,1.548304 -1.161482,3.423304 -1.161482,4.166666 0,0.743362 -0.405173,1.501567 -0.900385,1.684901 -0.528313,0.195587 -0.541637,2.399521 -0.03224,5.333333 0.477478,2.75 1.544518,8.990305 2.371199,13.867344 1.07017,6.313511 2.228564,9.818533 4.022141,12.170034 1.765352,2.314496 2.148096,3.452599 1.279186,3.803709 -0.681944,0.27556 -0.01974,0.536545 1.471558,0.579966 2.338845,0.0681 2.858965,-0.468859 3.784863,-3.907382 z m 4.444811,-25.519502 c -1.840031,-1.427404 -1.809915,-1.459301 0.578231,-0.61244 3.354923,1.189691 10.120784,0.383742 11.939496,-1.422232 1.223025,-1.214459 1.261917,-2.184975 0.240585,-6.00362 -0.670049,-2.50524 -1.997996,-5.744991 -2.950993,-7.199448 l -1.732721,-2.644467 -0.608711,3.744866 c -0.33479,2.059676 -1.07803,4.214185 -1.651644,4.787799 -1.736582,1.736582 -4.655457,0.502532 -5.676144,-2.399775 -0.779178,-2.215583 -0.549488,-3.293804 1.208087,-5.671052 1.978899,-2.676604 2.017809,-2.975285 0.441436,-3.388567 -1.094434,-0.28693 -0.769198,-0.495794 0.886389,-0.569232 3.357959,-0.148951 7.429992,3.072062 9.829271,7.775038 2.253865,4.417939 3.39881,10.179745 2.326781,11.709257 -2.415666,3.44654 -11.356677,4.588352 -14.830063,1.893873 z m 4.55887,-15.994169 c 0,-0.825 -0.423442,-1.5 -0.940983,-1.5 -1.260978,0 -2.164095,1.561589 -1.365164,2.36052 1.126184,1.126184 2.306147,0.68589 2.306147,-0.86052 z m 16.526577,-1.447552 c -2.575288,-5.082086 -4.517412,-6.79418 -6.392472,-5.63533 -1.428136,0.882637 2.826745,8.042023 5.809835,9.775796 1.405833,0.817071 2.698815,1.377667 2.873293,1.245769 0.174478,-0.131899 -0.856317,-2.555704 -2.290656,-5.386235 z"
             id="path3837" />
          <path
             style="fill:#ad87b8"
             d="m -97.571341,11.56457 c -0.266004,-0.693292 -0.366199,-20.610531 -0.222656,-44.260531 l 0.260987,-43 44,0 44,0 0,44 0,44 -43.777344,0.260531 c -34.486805,0.205241 -43.879983,-0.007 -44.260987,-1 z M -79.76074,-6.488745 c 0.855526,-1.305699 3.056754,-3.113725 4.891616,-4.017837 2.780414,-1.370023 2.967125,-1.647632 1.12091,-1.666609 -2.351631,-0.02417 -8.662829,4.946556 -10.398703,8.190068 -0.917954,1.715212 -0.814658,1.819299 0.896596,0.903463 1.063743,-0.569297 2.634054,-2.103386 3.489581,-3.409085 z m 23.72773,-7.522957 c 0,-3.309507 1.635868,-5.921835 4.775141,-7.625457 2.717311,-1.47463 2.711008,-1.478922 -2.275141,-1.549173 -3.690096,-0.05199 -4.569574,-0.321786 -3.357032,-1.02983 1.068445,-0.6239 3.341406,-0.567071 6.5,0.162515 2.671368,0.617044 8.565985,1.320413 13.099149,1.563042 15.186973,0.812855 24.712428,-4.152457 24.712428,-12.88179 0,-3.546438 -0.55138,-4.575009 -4.132015,-7.708059 -2.272609,-1.988529 -6.913316,-5.32856 -10.312683,-7.422291 -5.803698,-3.574602 -6.144002,-3.66609 -5.579511,-1.5 0.330637,1.268731 -0.459724,0.05678 -1.756356,-2.693216 -3.333067,-7.069031 -7.220598,-11.325157 -10.984261,-12.02573 -4.045721,-0.753076 -12.099085,2.681944 -15.948182,6.802415 -1.526903,1.634556 -2.472952,2.18697 -2.105516,1.229447 0.573681,-1.49499 0.376418,-1.583156 -1.406839,-0.628787 -3.379882,1.808859 -6.230397,6.171561 -6.212044,9.507514 0.0094,1.713327 0.926779,6.490141 2.038564,10.615141 1.111785,4.125 2.293373,11.866887 2.625752,17.204194 0.653291,10.490486 0.520978,10.295806 6.997433,10.295806 2.805386,0 3.321113,-0.359605 3.321113,-2.315741 z m 9,-26.797753 c 1.375,-0.273886 4.015132,-0.975163 5.86696,-1.558393 3.255485,-1.025309 3.350906,-1.202856 2.882045,-5.362579 -0.266704,-2.366189 -1.549487,-6.024672 -2.850628,-8.129964 l -2.365713,-3.827803 -0.573798,3.530082 c -0.315589,1.941545 -0.911996,4.077297 -1.325349,4.746116 -1.313531,2.125337 -4.624181,1.370789 -5.633517,-1.283965 -1.709165,-4.495445 2.012176,-10.265686 5.837531,-9.051566 3.218759,1.021595 7.412342,8.096642 7.917935,13.358451 0.563791,5.867482 -0.831309,7.309464 -7.506013,7.758255 -2.612199,0.175638 -3.624453,0.09525 -2.249453,-0.178634 z m 0,-16.969839 c 0,-0.870834 -0.534375,-1.405209 -1.1875,-1.1875 -1.854223,0.618074 -2.16176,2.770833 -0.395833,2.770833 0.870833,0 1.583333,-0.7125 1.583333,-1.583333 z m 16.317051,-2.230336 c -1.867361,-3.025894 -3.715446,-4.804724 -5.215939,-5.020478 -1.278132,-0.183781 -2.149515,0.04122 -1.936406,0.5 2.544638,5.4781 4.48615,8.267092 6.690495,9.610931 3.718051,2.266642 3.882635,0.452626 0.46185,-5.090453 z"
             id="path3835" />
          <path
             style="fill:#a184c2"
             d="m -97.571341,11.56457 c -0.266004,-0.693292 -0.366199,-20.610531 -0.222656,-44.260531 l 0.260987,-43 44,0 44,0 0,44 0,44 -43.777344,0.260531 c -34.486805,0.205241 -43.879983,-0.007 -44.260987,-1 z m 6.995704,-3.510531 c 0.997765,-5.502746 4.860038,-13.482765 8.15888,-16.857432 1.586061,-1.622517 3.108747,-3.017968 3.383747,-3.101001 0.275,-0.08303 1.766795,-0.632604 3.3151,-1.221268 1.548304,-0.588664 3.908625,-1.070299 5.245156,-1.070299 2.379269,0 2.42035,-0.141072 1.965659,-6.75 -0.255418,-3.7125 -0.478238,-7.0875 -0.495156,-7.5 -0.01692,-0.4125 -0.893259,-0.75 -1.947426,-0.75 -1.054166,0 -2.179166,-0.5625 -2.5,-1.25 -0.466666,-1 -0.7,-1 -1.166666,0 -0.40542,0.868756 -3.423629,1.25 -9.895919,1.25 l -9.312586,0 -0.853999,8.25 -0.853999,8.25 -0.563779,-8.5 c -0.392531,-5.918129 -0.620368,-2.399697 -0.750082,11.583333 -0.102467,11.045834 0.113697,20.383334 0.480364,20.75 0.366666,0.366667 1.666585,0.666667 2.888709,0.666667 1.780146,0 2.357264,-0.745761 2.901997,-3.75 z m 80.337159,-15.5 c -0.219115,-10.5875 -0.712522,-19.3625 -1.096461,-19.5 -1.789047,-0.640711 -2.581865,-0.110748 -2.020969,1.350925 0.753267,1.962983 -1.793777,3.813453 -2.885396,2.096289 -0.513811,-0.808248 -0.766055,-0.623491 -0.776393,0.56867 -0.0109,1.257319 -0.807299,1.764388 -2.765313,1.760687 -11.118605,-0.02102 -30.989778,1.386031 -32.080413,2.271568 -0.731727,0.594123 -1.126637,2.146207 -0.877578,3.449075 0.34496,1.804543 0.0922,2.230463 -1.061031,1.787926 -1.311009,-0.503081 -1.327413,-0.344235 -0.122422,1.185431 2.076771,2.636338 6.235656,5.817544 7.196396,5.504652 0.464039,-0.151127 0.620538,0.08632 0.347775,0.52766 -0.272764,0.44134 0.354097,3.26499 1.393024,6.274777 1.038927,3.009787 1.903648,6.93484 1.921603,8.72234 l 0.03265,3.25 16.596462,0 16.596461,0 -0.398391,-19.25 z m -39.294532,-9.705703 c -1.83216,-0.746726 -1.765312,-0.876786 0.79657,-1.549811 3.036512,-0.797713 4.284756,-0.244107 3.244549,1.438983 -0.756336,1.223777 -1.275467,1.238014 -4.041119,0.110828 z m -30.03383,10.541313 c 2.46278,-2.427914 5.872571,-4.720736 7.577312,-5.09516 1.704742,-0.374424 2.884549,-0.895752 2.621795,-1.158506 -1.240941,-1.240941 -8.414223,1.993486 -11.839959,5.338628 -3.455831,3.37453 -4.677728,5.329428 -3.331125,5.329428 0.271807,0 2.509196,-1.986475 4.971977,-4.41439 z m 23.53383,-7.401351 c 0,-3.309507 1.635868,-5.921835 4.775141,-7.625457 2.717311,-1.47463 2.711008,-1.478922 -2.275141,-1.549173 -3.690096,-0.05199 -4.569574,-0.321786 -3.357032,-1.02983 1.068445,-0.6239 3.341406,-0.567071 6.5,0.162515 2.671368,0.617044 8.565985,1.320413 13.099149,1.563042 15.186973,0.812855 24.712428,-4.152457 24.712428,-12.88179 0,-3.546438 -0.55138,-4.575009 -4.132015,-7.708059 -2.272609,-1.988529 -6.913316,-5.32856 -10.312683,-7.422291 -5.803698,-3.574602 -6.144002,-3.66609 -5.579511,-1.5 0.330637,1.268731 -0.459724,0.05678 -1.756356,-2.693216 -3.333067,-7.069031 -7.220598,-11.325157 -10.984261,-12.02573 -4.045721,-0.753076 -12.099085,2.681944 -15.948182,6.802415 -1.526903,1.634556 -2.472952,2.18697 -2.105516,1.229447 0.573681,-1.49499 0.376418,-1.583156 -1.406839,-0.628787 -3.379882,1.808859 -6.230397,6.171561 -6.212044,9.507514 0.0094,1.713327 0.926779,6.490141 2.038564,10.615141 1.111785,4.125 2.293373,11.866887 2.625752,17.204194 0.653291,10.490486 0.520978,10.295806 6.997433,10.295806 2.805386,0 3.321113,-0.359605 3.321113,-2.315741 z m 9,-26.797753 c 7.536641,-1.501223 9.000752,-2.433053 8.978038,-5.714058 -0.02485,-3.589342 -2.913976,-10.554407 -5.142808,-12.398202 -1.260317,-1.042594 -1.418984,-0.798257 -1.061834,1.63516 0.585162,3.986967 -1.371908,7.288385 -4.091057,6.901278 -1.786488,-0.254329 -2.237594,-1.070912 -2.486962,-4.501841 -0.255131,-3.510229 0.08753,-4.448104 2.109095,-5.772685 1.327545,-0.869841 3.114205,-1.312727 3.970356,-0.984191 2.952117,1.132833 7.006073,8.316026 7.480638,13.254918 0.563791,5.867482 -0.831309,7.309464 -7.506013,7.758255 -2.612199,0.175638 -3.624453,0.09525 -2.249453,-0.178634 z m 0,-12.386506 c 0,-0.55 -0.198442,-1 -0.440983,-1 -0.242541,0 -0.719098,0.45 -1.059017,1 -0.339919,0.55 -0.141476,1 0.440983,1 0.582459,0 1.059017,-0.45 1.059017,-1 z m 0,-4.5 c 0,-0.825 -0.675,-1.5 -1.5,-1.5 -0.825,0 -1.5,0.675 -1.5,1.5 0,0.825 0.675,1.5 1.5,1.5 0.825,0 1.5,-0.675 1.5,-1.5 z m 18.54021,1.941994 c -2.321847,-5.556963 -5.486672,-9.441994 -7.691638,-9.441994 -1.108381,0 -1.853499,0.3375 -1.655817,0.75 2.73536,5.707838 4.466111,8.123195 7.12755,9.946884 1.748832,1.198346 3.298234,2.20678 3.443115,2.240964 0.144881,0.03418 -0.405563,-1.538951 -1.22321,-3.495854 z"
             id="path3833" />
          <path
             style="fill:#ea8376"
             d="m -97.571341,11.56457 c -0.266004,-0.693292 -0.366199,-20.610531 -0.222656,-44.260531 l 0.260987,-43 44,0 44,0 0,44 0,44 -43.777344,0.260531 c -34.486805,0.205241 -43.879983,-0.007 -44.260987,-1 z m 6.995704,-3.510531 c 0.997765,-5.502746 4.860038,-13.482765 8.15888,-16.857432 1.586061,-1.622517 3.108747,-3.017968 3.383747,-3.101001 0.275,-0.08303 1.766795,-0.632604 3.3151,-1.221268 1.548304,-0.588664 3.974235,-1.070299 5.390957,-1.070299 l 2.575857,0 -0.530037,-8.25 c -0.291521,-4.5375 -1.124534,-9.6 -1.851139,-11.25 -1.684478,-3.825166 -4.900738,-8.140765 -4.900738,-6.575842 0,0.656632 -0.508379,0.87968 -1.129732,0.495663 -0.691903,-0.42762 -0.934123,-0.159829 -0.625,0.690983 0.277603,0.764058 1.010982,1.276696 1.629732,1.139196 0.61875,-0.1375 1.125,0.35 1.125,1.083333 0,0.733334 -0.675,1.333334 -1.5,1.333334 -0.825,0 -1.5,-0.375 -1.5,-0.833334 0,-0.458333 -3.6,-0.833333 -8,-0.833333 -7.600095,0 -8.004983,-0.112473 -8.09968,-2.25 -0.09563,-2.158565 -0.132216,-2.148406 -0.90032,0.25 -0.562905,1.757671 -0.880518,-0.02392 -1.06965,-6 -0.256081,-8.091474 -0.303454,-7.875195 -0.985675,4.5 -0.943012,17.105837 -1.124732,50.98661 -0.278008,51.833333 0.366666,0.366667 1.666585,0.666667 2.888709,0.666667 1.780146,0 2.357264,-0.745761 2.901997,-3.75 z m 17.621574,-43.833333 c 0.04798,-1.164943 0.284941,-1.4019 0.604167,-0.604167 0.288871,0.721875 0.253344,1.584375 -0.07895,1.916667 -0.332292,0.332291 -0.568641,-0.258334 -0.52522,-1.3125 z m 62.842106,24.833333 c -0.06093,-17.55778 -0.325839,-22.069387 -1.160715,-19.767857 -0.594971,1.640178 -1.717695,3.618071 -2.494941,4.395317 -1.03575,1.035751 -1.103972,1.604272 -0.25544,2.128694 0.802693,0.496091 0.656089,0.908018 -0.478049,1.343228 -0.956039,0.366867 -1.381903,0.216922 -1.024829,-0.360836 0.84908,-1.373841 0.0052,-1.244086 -4.289198,0.659482 -2.626677,1.16433 -7.68015,1.782069 -17.217881,2.104723 -14.074242,0.47612 -16.213986,1.133525 -17.308167,5.317678 -0.537761,2.056404 5.518879,8.68381 7.452488,8.154794 0.552386,-0.151127 0.781169,0.08632 0.508406,0.52766 -0.272764,0.44134 0.354097,3.26499 1.393024,6.274777 1.038927,3.009787 1.903648,6.93484 1.921603,8.72234 l 0.03265,3.25 16.5,0 16.5,0 -0.07895,-22.75 z m -69.454883,4.33561 c 2.46278,-2.427914 5.872571,-4.720736 7.577312,-5.09516 1.704742,-0.374424 2.884549,-0.895752 2.621795,-1.158506 -1.240941,-1.240941 -8.414223,1.993486 -11.839959,5.338628 -3.455831,3.37453 -4.677728,5.329428 -3.331125,5.329428 0.271807,0 2.509196,-1.986475 4.971977,-4.41439 z m 23.53383,-7.401351 c 0,-3.309507 1.635868,-5.921835 4.775141,-7.625457 2.717311,-1.47463 2.711008,-1.478922 -2.275141,-1.549173 -3.690096,-0.05199 -4.569574,-0.321786 -3.357032,-1.02983 1.068445,-0.6239 3.341406,-0.567071 6.5,0.162515 2.671368,0.617044 8.565985,1.320413 13.099149,1.563042 15.186973,0.812855 24.712428,-4.152457 24.712428,-12.88179 0,-3.546438 -0.55138,-4.575009 -4.132015,-7.708059 -2.272609,-1.988529 -6.913316,-5.32856 -10.312683,-7.422291 -5.803698,-3.574602 -6.144002,-3.66609 -5.579511,-1.5 0.330637,1.268731 -0.459724,0.05678 -1.756356,-2.693216 -3.333067,-7.069031 -7.220598,-11.325157 -10.984261,-12.02573 -4.045721,-0.753076 -12.099085,2.681944 -15.948182,6.802415 -1.526903,1.634556 -2.472952,2.18697 -2.105516,1.229447 0.573681,-1.49499 0.376418,-1.583156 -1.406839,-0.628787 -3.379882,1.808859 -6.230397,6.171561 -6.212044,9.507514 0.0094,1.713327 0.926779,6.490141 2.038564,10.615141 1.111785,4.125 2.293373,11.866887 2.625752,17.204194 0.653291,10.490486 0.520978,10.295806 6.997433,10.295806 2.805386,0 3.321113,-0.359605 3.321113,-2.315741 z m 9,-26.797753 c 7.536641,-1.501223 9.000752,-2.433053 8.978038,-5.714058 -0.02485,-3.589342 -2.913976,-10.554407 -5.142808,-12.398202 -1.260317,-1.042594 -1.418984,-0.798257 -1.061834,1.63516 0.585162,3.986967 -1.371908,7.288385 -4.091057,6.901278 -1.786488,-0.254329 -2.237594,-1.070912 -2.486962,-4.501841 -0.255131,-3.510229 0.08753,-4.448104 2.109095,-5.772685 1.327545,-0.869841 3.114205,-1.312727 3.970356,-0.984191 2.952117,1.132833 7.006073,8.316026 7.480638,13.254918 0.563791,5.867482 -0.831309,7.309464 -7.506013,7.758255 -2.612199,0.175638 -3.624453,0.09525 -2.249453,-0.178634 z m 0,-12.386506 c 0,-0.55 -0.198442,-1 -0.440983,-1 -0.242541,0 -0.719098,0.45 -1.059017,1 -0.339919,0.55 -0.141476,1 0.440983,1 0.582459,0 1.059017,-0.45 1.059017,-1 z m 0,-4.5 c 0,-0.825 -0.675,-1.5 -1.5,-1.5 -0.825,0 -1.5,0.675 -1.5,1.5 0,0.825 0.675,1.5 1.5,1.5 0.825,0 1.5,-0.675 1.5,-1.5 z m 35.289749,14.5 c -0.287656,-1.1 -1.141123,-2 -1.896593,-2 -1.051817,0 -0.972436,0.468503 0.338872,2 0.94185,1.1 1.795317,2 1.896593,2 0.101277,0 -0.05122,-0.9 -0.338872,-2 z m -63.289749,0 c 0,-0.55 -0.198442,-1 -0.440983,-1 -0.242541,0 -0.719098,0.45 -1.059017,1 -0.339919,0.55 -0.141476,1 0.440983,1 0.582459,0 1.059017,-0.45 1.059017,-1 z m 58.5,-4 c -0.813024,-1.315501 0.809856,-1.290144 2.133333,0.03333 0.711111,0.711111 1.033334,0.577976 1.033334,-0.426953 0,-0.803157 -0.825,-1.676028 -1.833334,-1.939713 -1.008333,-0.263682 -1.833333,-0.08568 -1.833333,0.395571 0,0.481247 -0.7875,0.603579 -1.75,0.271848 -1.421314,-0.489865 -1.374359,-0.302123 0.25,0.999581 2.340537,1.875623 2.852876,2.046318 2,0.666336 z m -4.118443,-4.551938 c 0.341496,-0.889925 0.173849,-1.291322 -0.393011,-0.940983 -0.5437,0.336025 -0.988546,1.034397 -0.988546,1.551938 0,1.438432 0.716766,1.121462 1.381557,-0.610955 z m -53.638628,-2.685454 c 0.132456,-1.758401 -0.03279,-1.918964 -0.771883,-0.75 -0.778974,1.232044 -0.943049,1.244186 -0.955733,0.07072 -0.0084,-0.779166 -0.304438,-1.127541 -0.657814,-0.774166 -0.353375,0.353376 -0.07328,1.328376 0.622445,2.166667 1.601333,1.929489 1.562739,1.945102 1.762985,-0.713226 z m 45.797281,-1.320614 c -2.321847,-5.556963 -5.486672,-9.441994 -7.691638,-9.441994 -1.108381,0 -1.853499,0.3375 -1.655817,0.75 2.73536,5.707838 4.466111,8.123195 7.12755,9.946884 1.748832,1.198346 3.298234,2.20678 3.443115,2.240964 0.144881,0.03418 -0.405563,-1.538951 -1.22321,-3.495854 z m -43.04021,-0.441994 c 0.339919,-0.55 0.141476,-1 -0.440983,-1 -0.582459,0 -1.059017,0.45 -1.059017,1 0,0.55 0.198442,1 0.440983,1 0.242541,0 0.719098,-0.45 1.059017,-1 z"
             id="path3831" />
          <path
             style="fill:#9a81b9"
             d="m -97.571341,11.56457 c -0.266004,-0.693292 -0.366199,-20.610531 -0.222656,-44.260531 l 0.260987,-43 44,0 44,0 0,44 0,44 -43.777344,0.260531 c -34.486805,0.205241 -43.879983,-0.007 -44.260987,-1 z m 6.995704,-3.510531 c 0.997765,-5.502746 4.860038,-13.482765 8.15888,-16.857432 1.586061,-1.622517 3.108747,-3.017968 3.383747,-3.101001 0.275,-0.08303 1.766795,-0.632604 3.3151,-1.221268 1.548304,-0.588664 3.974235,-1.070299 5.390957,-1.070299 l 2.575857,0 -0.530037,-8.25 c -0.291521,-4.5375 -1.124534,-9.6 -1.851139,-11.25 -1.684478,-3.825166 -4.900738,-8.140765 -4.900738,-6.575842 0,0.656632 -0.508379,0.87968 -1.129732,0.495663 -0.691903,-0.42762 -0.934123,-0.159829 -0.625,0.690983 0.277603,0.764058 1.010982,1.276696 1.629732,1.139196 0.61875,-0.1375 1.125,0.35 1.125,1.083333 0,0.733334 -0.675,1.333334 -1.5,1.333334 -0.825,0 -1.5,-0.375 -1.5,-0.833334 0,-0.458333 -3.6,-0.833333 -8,-0.833333 -7.600095,0 -8.004983,-0.112473 -8.09968,-2.25 -0.09563,-2.158565 -0.132216,-2.148406 -0.90032,0.25 -0.562905,1.757671 -0.880518,-0.02392 -1.06965,-6 -0.256081,-8.091474 -0.303454,-7.875195 -0.985675,4.5 -0.943012,17.105837 -1.124732,50.98661 -0.278008,51.833333 0.366666,0.366667 1.666585,0.666667 2.888709,0.666667 1.780146,0 2.357264,-0.745761 2.901997,-3.75 z m 17.621574,-43.833333 c 0.04798,-1.164943 0.284941,-1.4019 0.604167,-0.604167 0.288871,0.721875 0.253344,1.584375 -0.07895,1.916667 -0.332292,0.332291 -0.568641,-0.258334 -0.52522,-1.3125 z m 27.548429,42.8814 c -1.301822,-9.497831 -7.510704,-17.993431 -11.475472,-15.701866 -0.908547,0.525125 -3.325761,0.895848 -5.371587,0.823831 -2.045825,-0.07202 -3.500985,0.22292 -3.233688,0.655415 0.267297,0.432496 0.02865,1.069008 -0.530317,1.414472 -2.806606,1.734578 0.605215,15.390849 4.206952,16.838888 0.702205,0.282314 4.825402,0.548825 9.16266,0.592246 l 7.885924,0.07895 -0.644472,-4.701933 z M -55.03301,-7.195961 c -0.901292,-0.58246 -1.024633,-0.975486 -0.309017,-0.984687 0.655041,-0.00842 1.469098,0.434687 1.809017,0.984687 0.767305,1.241525 0.421123,1.241525 -1.5,0 z m 44.921053,-3.75 c -0.06093,-17.55778 -0.325839,-22.069387 -1.160715,-19.767857 -0.594971,1.640178 -1.717695,3.618071 -2.494941,4.395317 -1.03575,1.035751 -1.103972,1.604272 -0.25544,2.128694 0.802693,0.496091 0.656089,0.908018 -0.478049,1.343228 -0.956039,0.366867 -1.381903,0.216922 -1.024829,-0.360836 0.84908,-1.373841 0.0052,-1.244086 -4.289198,0.659482 -2.626677,1.16433 -7.68015,1.782069 -17.217881,2.104723 -14.074242,0.47612 -16.213986,1.133525 -17.308167,5.317678 -0.537761,2.056404 5.518879,8.68381 7.452488,8.154794 0.552386,-0.151127 0.781169,0.08632 0.508406,0.52766 -0.272764,0.44134 0.354097,3.26499 1.393024,6.274777 1.038927,3.009787 1.903648,6.93484 1.921603,8.72234 l 0.03265,3.25 16.5,0 16.5,0 -0.07895,-22.75 z m -69.454883,4.33561 c 2.46278,-2.427914 5.872571,-4.720736 7.577312,-5.09516 1.704742,-0.374424 2.884549,-0.895752 2.621795,-1.158506 -1.240941,-1.240941 -8.414223,1.993486 -11.839959,5.338628 -3.455831,3.37453 -4.677728,5.329428 -3.331125,5.329428 0.271807,0 2.509196,-1.986475 4.971977,-4.41439 z m 23.53383,-7.401351 c 0,-3.309507 1.635868,-5.921835 4.775141,-7.625457 2.717311,-1.47463 2.711008,-1.478922 -2.275141,-1.549173 -3.690096,-0.05199 -4.569574,-0.321786 -3.357032,-1.02983 1.068445,-0.6239 3.341406,-0.567071 6.5,0.162515 2.671368,0.617044 8.565985,1.320413 13.099149,1.563042 15.186973,0.812855 24.712428,-4.152457 24.712428,-12.88179 0,-3.546438 -0.55138,-4.575009 -4.132015,-7.708059 -2.272609,-1.988529 -6.913316,-5.32856 -10.312683,-7.422291 -5.803698,-3.574602 -6.144002,-3.66609 -5.579511,-1.5 0.330637,1.268731 -0.459724,0.05678 -1.756356,-2.693216 -3.333067,-7.069031 -7.220598,-11.325157 -10.984261,-12.02573 -4.045721,-0.753076 -12.099085,2.681944 -15.948182,6.802415 -1.526903,1.634556 -2.472952,2.18697 -2.105516,1.229447 0.573681,-1.49499 0.376418,-1.583156 -1.406839,-0.628787 -3.379882,1.808859 -6.230397,6.171561 -6.212044,9.507514 0.0094,1.713327 0.926779,6.490141 2.038564,10.615141 1.111785,4.125 2.293373,11.866887 2.625752,17.204194 0.653291,10.490486 0.520978,10.295806 6.997433,10.295806 2.805386,0 3.321113,-0.359605 3.321113,-2.315741 z m 9,-26.797753 c 7.536641,-1.501223 9.000752,-2.433053 8.978038,-5.714058 -0.02485,-3.589342 -2.913976,-10.554407 -5.142808,-12.398202 -1.260317,-1.042594 -1.418984,-0.798257 -1.061834,1.63516 0.585162,3.986967 -1.371908,7.288385 -4.091057,6.901278 -1.786488,-0.254329 -2.237594,-1.070912 -2.486962,-4.501841 -0.255131,-3.510229 0.08753,-4.448104 2.109095,-5.772685 1.327545,-0.869841 3.114205,-1.312727 3.970356,-0.984191 2.952117,1.132833 7.006073,8.316026 7.480638,13.254918 0.563791,5.867482 -0.831309,7.309464 -7.506013,7.758255 -2.612199,0.175638 -3.624453,0.09525 -2.249453,-0.178634 z m 0,-12.386506 c 0,-0.55 -0.198442,-1 -0.440983,-1 -0.242541,0 -0.719098,0.45 -1.059017,1 -0.339919,0.55 -0.141476,1 0.440983,1 0.582459,0 1.059017,-0.45 1.059017,-1 z m 0,-4.5 c 0,-0.825 -0.675,-1.5 -1.5,-1.5 -0.825,0 -1.5,0.675 -1.5,1.5 0,0.825 0.675,1.5 1.5,1.5 0.825,0 1.5,-0.675 1.5,-1.5 z m 35.289749,14.5 c -0.287656,-1.1 -1.141123,-2 -1.896593,-2 -1.051817,0 -0.972436,0.468503 0.338872,2 0.94185,1.1 1.795317,2 1.896593,2 0.101277,0 -0.05122,-0.9 -0.338872,-2 z m -63.289749,0 c 0,-0.55 -0.198442,-1 -0.440983,-1 -0.242541,0 -0.719098,0.45 -1.059017,1 -0.339919,0.55 -0.141476,1 0.440983,1 0.582459,0 1.059017,-0.45 1.059017,-1 z m 58.5,-4 c -0.813024,-1.315501 0.809856,-1.290144 2.133333,0.03333 0.711111,0.711111 1.033334,0.577976 1.033334,-0.426953 0,-0.803157 -0.825,-1.676028 -1.833334,-1.939713 -1.008333,-0.263682 -1.833333,-0.08568 -1.833333,0.395571 0,0.481247 -0.7875,0.603579 -1.75,0.271848 -1.421314,-0.489865 -1.374359,-0.302123 0.25,0.999581 2.340537,1.875623 2.852876,2.046318 2,0.666336 z m -4.118443,-4.551938 c 0.341496,-0.889925 0.173849,-1.291322 -0.393011,-0.940983 -0.5437,0.336025 -0.988546,1.034397 -0.988546,1.551938 0,1.438432 0.716766,1.121462 1.381557,-0.610955 z m -53.638628,-2.685454 c 0.132456,-1.758401 -0.03279,-1.918964 -0.771883,-0.75 -0.778974,1.232044 -0.943049,1.244186 -0.955733,0.07072 -0.0084,-0.779166 -0.304438,-1.127541 -0.657814,-0.774166 -0.353375,0.353376 -0.07328,1.328376 0.622445,2.166667 1.601333,1.929489 1.562739,1.945102 1.762985,-0.713226 z m 45.797281,-1.320614 c -2.321847,-5.556963 -5.486672,-9.441994 -7.691638,-9.441994 -1.108381,0 -1.853499,0.3375 -1.655817,0.75 2.73536,5.707838 4.466111,8.123195 7.12755,9.946884 1.748832,1.198346 3.298234,2.20678 3.443115,2.240964 0.144881,0.03418 -0.405563,-1.538951 -1.22321,-3.495854 z m -43.04021,-0.441994 c 0.339919,-0.55 0.141476,-1 -0.440983,-1 -0.582459,0 -1.059017,0.45 -1.059017,1 0,0.55 0.198442,1 0.440983,1 0.242541,0 0.719098,-0.45 1.059017,-1 z"
             id="path3829" />
          <path
             style="fill:#8f7bb8"
             d="m -97.571341,11.56457 c -0.266004,-0.693292 -0.366199,-20.610531 -0.222656,-44.260531 l 0.260987,-43 44,0 44,0 0,44 0,44 -43.777344,0.260531 c -34.486805,0.205241 -43.879983,-0.007 -44.260987,-1 z m 7.455628,-4.810502 c 0.595663,-2.777484 1.819276,-6.489984 2.719138,-8.25 1.954291,-3.822343 7.489104,-10.033482 9.458644,-10.614442 0.772707,-0.227927 3.317421,-0.892739 5.654921,-1.47736 l 4.25,-1.062948 -0.01478,-6.022639 c -0.02081,-8.477218 -4.217471,-26.115168 -5.95777,-25.039604 -1.06801,0.660066 0.702397,-7.142557 2.237807,-9.862574 1.40383,-2.48692 1.82215,-5.792516 0.640628,-5.062295 -0.450195,0.278236 -0.58483,1.114912 -0.299189,1.859281 0.413537,1.077659 -1.581811,1.38748 -9.793674,1.520684 -15.667622,0.254141 -14.218312,-0.478936 -14.949993,7.561868 -0.350335,3.85 -0.700208,19.2625 -0.777496,34.25 l -0.140524,27.25 2.944632,0 c 2.727802,0 3.024381,-0.371857 4.027657,-5.049971 z m 14.335934,-61.238401 c -0.119628,-1.588097 0.06913,-1.808078 0.689759,-0.803873 0.678552,1.097921 0.954358,0.992392 1.339732,-0.512608 0.368627,-1.439601 0.513159,-1.503923 0.601277,-0.267592 0.0638,0.895156 -0.464965,2.109715 -1.175035,2.69902 -0.983665,0.81637 -1.330247,0.550922 -1.455733,-1.114947 z m 30.374145,61.586439 c -1.301822,-9.497831 -7.510704,-17.993431 -11.475472,-15.701866 -0.908547,0.525125 -3.325761,0.895848 -5.371587,0.823831 -2.045825,-0.07202 -3.500985,0.22292 -3.233688,0.655415 0.267297,0.432496 0.02865,1.069008 -0.530317,1.414472 -2.806606,1.734578 0.605215,15.390849 4.206952,16.838888 0.702205,0.282314 4.825402,0.548825 9.16266,0.592246 l 7.885924,0.07895 -0.644472,-4.701933 z M -55.03301,-7.195961 c -0.901292,-0.58246 -1.024633,-0.975486 -0.309017,-0.984687 0.655041,-0.00842 1.469098,0.434687 1.809017,0.984687 0.767305,1.241525 0.421123,1.241525 -1.5,0 z m 44.960858,-3.75 c -0.03397,-19.745355 -0.214036,-22.353783 -1.363373,-19.75 -3.220128,7.295088 -9.219201,9.654491 -26.097485,10.263999 -9.378231,0.338666 -13.459771,0.872875 -14.650305,1.917493 -3.157682,2.770665 -2.774686,4.903341 1.753811,9.765931 4.405182,4.730177 7.396494,11.902244 7.396494,17.734078 l 0,2.818499 16.5,0 16.5,0 -0.03914,-22.75 z m -69.494688,4.33561 c 2.46278,-2.427914 5.872571,-4.720736 7.577312,-5.09516 1.704742,-0.374424 2.884549,-0.895752 2.621795,-1.158506 -1.240941,-1.240941 -8.414223,1.993486 -11.839959,5.338628 -3.455831,3.37453 -4.677728,5.329428 -3.331125,5.329428 0.271807,0 2.509196,-1.986475 4.971977,-4.41439 z m 23.53383,-7.401351 c 0,-3.309507 1.635868,-5.921835 4.775141,-7.625457 2.717311,-1.47463 2.711008,-1.478922 -2.275141,-1.549173 -3.690096,-0.05199 -4.569574,-0.321786 -3.357032,-1.02983 1.068445,-0.6239 3.341406,-0.567071 6.5,0.162515 2.671368,0.617044 8.565985,1.320413 13.099149,1.563042 15.186973,0.812855 24.712428,-4.152457 24.712428,-12.88179 0,-3.546438 -0.55138,-4.575009 -4.132015,-7.708059 -2.272609,-1.988529 -6.913316,-5.32856 -10.312683,-7.422291 -5.803698,-3.574602 -6.144002,-3.66609 -5.579511,-1.5 0.330637,1.268731 -0.459724,0.05678 -1.756356,-2.693216 -3.333067,-7.069031 -7.220598,-11.325157 -10.984261,-12.02573 -4.045721,-0.753076 -12.099085,2.681944 -15.948182,6.802415 -1.526903,1.634556 -2.472952,2.18697 -2.105516,1.229447 0.573681,-1.49499 0.376418,-1.583156 -1.406839,-0.628787 -3.379882,1.808859 -6.230397,6.171561 -6.212044,9.507514 0.0094,1.713327 0.926779,6.490141 2.038564,10.615141 1.111785,4.125 2.293373,11.866887 2.625752,17.204194 0.653291,10.490486 0.520978,10.295806 6.997433,10.295806 2.805386,0 3.321113,-0.359605 3.321113,-2.315741 z m 9,-26.797753 c 7.536641,-1.501223 9.000752,-2.433053 8.978038,-5.714058 -0.02485,-3.589342 -2.913976,-10.554407 -5.142808,-12.398202 -1.260317,-1.042594 -1.418984,-0.798257 -1.061834,1.63516 0.585162,3.986967 -1.371908,7.288385 -4.091057,6.901278 -1.786488,-0.254329 -2.237594,-1.070912 -2.486962,-4.501841 -0.255131,-3.510229 0.08753,-4.448104 2.109095,-5.772685 1.327545,-0.869841 3.114205,-1.312727 3.970356,-0.984191 2.952117,1.132833 7.006073,8.316026 7.480638,13.254918 0.563791,5.867482 -0.831309,7.309464 -7.506013,7.758255 -2.612199,0.175638 -3.624453,0.09525 -2.249453,-0.178634 z m 0,-12.386506 c 0,-0.55 -0.198442,-1 -0.440983,-1 -0.242541,0 -0.719098,0.45 -1.059017,1 -0.339919,0.55 -0.141476,1 0.440983,1 0.582459,0 1.059017,-0.45 1.059017,-1 z m 0,-4.5 c 0,-0.825 -0.675,-1.5 -1.5,-1.5 -0.825,0 -1.5,0.675 -1.5,1.5 0,0.825 0.675,1.5 1.5,1.5 0.825,0 1.5,-0.675 1.5,-1.5 z m 36.825293,8.25 c -0.09609,-6.7375 -0.346963,-10.3375 -0.557498,-8 -0.379683,4.2155 -2.267795,6.088796 -2.267795,2.25 0,-1.657506 -0.666667,-2 -3.893011,-2 -2.60811,0 -4.091019,0.515999 -4.492937,1.563382 -0.32996,0.85986 -1.101148,1.25361 -1.713752,0.875 -0.612604,-0.37861 -0.728282,-0.969632 -0.257063,-1.313382 1.359124,-0.991468 1.114089,-4.791667 -0.308964,-4.791667 -0.745287,0 -1.148961,0.878506 -0.957294,2.083334 0.182281,1.145833 0.137974,1.515324 -0.09846,0.82109 -0.236435,-0.694234 -0.867676,-0.991671 -1.402758,-0.660972 -0.615914,0.380655 -0.574287,1.081541 0.11345,1.910214 0.59748,0.71992 1.289873,2.365871 1.538651,3.65767 0.395284,2.052546 1.890128,3.559452 2.697139,2.718902 0.684805,-0.713267 10.774999,10.066963 10.774999,11.511868 0,0.893508 0.225,1.624561 0.5,1.624561 0.275,0 0.421382,-5.5125 0.325293,-12.25 z m -6.844292,1.727108 c -1.056784,-1.273347 -0.994917,-1.419678 0.377555,-0.893011 0.902794,0.346434 1.641444,1.031736 1.641444,1.522892 0,1.285959 -0.578873,1.105364 -2.018999,-0.629881 z m -2.933255,-3.426438 c -0.79874,-0.505287 -1.780146,-0.716056 -2.180902,-0.468375 -0.400756,0.247681 -0.953211,0.08698 -1.227677,-0.357118 -0.274466,-0.444095 0.77742,-0.790475 2.337525,-0.769733 1.560104,0.02074 2.65077,0.338319 2.4237,0.705725 -0.227069,0.367406 0.152451,0.895919 0.843377,1.174473 0.690927,0.278555 0.806231,0.535099 0.256231,0.570098 -0.55,0.035 -1.653514,-0.349782 -2.452254,-0.85507 z m -8.507536,-4.608676 c -2.321847,-5.556963 -5.486672,-9.441994 -7.691638,-9.441994 -1.108381,0 -1.853499,0.3375 -1.655817,0.75 2.73536,5.707838 4.466111,8.123195 7.12755,9.946884 1.748832,1.198346 3.298234,2.20678 3.443115,2.240964 0.144881,0.03418 -0.405563,-1.538951 -1.22321,-3.495854 z m -9.143216,-11.275327 c 0.283266,-0.458334 -0.120382,-0.833334 -0.896994,-0.833334 -0.776612,0 -1.18026,0.375 -0.896994,0.833334 0.283265,0.458333 0.686913,0.833333 0.896994,0.833333 0.210081,0 0.613729,-0.375 0.896994,-0.833333 z m -9.230327,-3.651354 c 0.366666,-0.0084 0.816666,-0.240313 1,-0.515313 0.183333,-0.275 0.149737,-0.391404 -0.07466,-0.258676 -0.224395,0.132728 -1.124395,-0.302436 -2,-0.967032 -0.875605,-0.664596 -1.258413,-0.814596 -0.850685,-0.333334 0.407728,0.481263 0.182728,1.565309 -0.5,2.408991 -1.03229,1.275654 -0.98873,1.377924 0.258676,0.607322 0.825,-0.509655 1.8,-0.933536 2.166667,-0.941958 z"
             id="path3827" />
          <path
             style="fill:#df786a"
             d="m -97.571341,11.56457 c -0.266004,-0.693292 -0.366199,-20.610531 -0.222656,-44.260531 l 0.260987,-43 44,0 44,0 0,44 0,44 -43.777344,0.260531 c -34.486805,0.205241 -43.879983,-0.007 -44.260987,-1 z m 7.451995,-4.793564 c 1.466607,-6.838552 4.27786,-12.049931 8.500087,-15.757096 3.204981,-2.81401 8.9002,-5.189938 12.474955,-5.204294 1.981426,-0.008 0.894532,-15.238597 -1.784457,-25.005577 -2.647288,-9.651409 -2.618834,-12.961132 0.145751,-16.953415 2.126214,-3.070424 3.575534,-4.101435 9.911972,-7.051136 1.92213,-0.894779 2.964367,-2.440108 3.75,-5.560138 0.598415,-2.376523 1.088028,-4.796682 1.088028,-5.378131 0,-0.707478 -6.580365,-1.05718 -19.893011,-1.05718 -17.217334,0 -19.974653,0.212756 -20.5,1.581788 -0.333844,0.869983 -0.606989,20.444983 -0.606989,43.499999 l 0,41.918213 2.917136,0 c 2.693475,0 2.999894,-0.38589 3.996528,-5.033033 z m 44.713712,0.3311 c -1.301822,-9.497831 -7.510704,-17.993431 -11.475472,-15.701866 -0.908547,0.525125 -3.325761,0.895848 -5.371587,0.823831 -2.045825,-0.07202 -3.500985,0.22292 -3.233688,0.655415 0.267297,0.432496 0.02865,1.069008 -0.530317,1.414472 -2.806606,1.734578 0.605215,15.390849 4.206952,16.838888 0.702205,0.282314 4.825402,0.548825 9.16266,0.592246 l 7.885924,0.07895 -0.644472,-4.701933 z M -55.03301,-7.195961 c -0.901292,-0.58246 -1.024633,-0.975486 -0.309017,-0.984687 0.655041,-0.00842 1.469098,0.434687 1.809017,0.984687 0.767305,1.241525 0.421123,1.241525 -1.5,0 z m 44.914047,-4.25 c -0.05395,-14.592349 -0.404815,-22.185966 -0.942253,-20.39255 -2.3689,7.904952 -9.120755,10.82051 -26.471794,11.43094 -7.15,0.251545 -13.732433,0.838424 -14.627629,1.304175 -0.895196,0.465752 -1.848953,2.004602 -2.11946,3.419667 -0.388524,2.032431 0.417687,3.508672 3.838257,7.02818 4.399046,4.526286 7.408832,11.692854 7.408832,17.641089 l 0,2.818499 16.5,0 16.5,0 -0.08595,-23.25 z m -69.447877,4.83561 c 2.46278,-2.427914 5.872571,-4.720736 7.577312,-5.09516 1.704742,-0.374424 2.884549,-0.895752 2.621795,-1.158506 -1.240941,-1.240941 -8.414223,1.993486 -11.839959,5.338628 -3.455831,3.37453 -4.677728,5.329428 -3.331125,5.329428 0.271807,0 2.509196,-1.986475 4.971977,-4.41439 z m 23.53383,-7.401351 c 0,-3.309507 1.635868,-5.921835 4.775141,-7.625457 2.717311,-1.47463 2.711008,-1.478922 -2.275141,-1.549173 -3.690096,-0.05199 -4.569574,-0.321786 -3.357032,-1.02983 1.068445,-0.6239 3.341406,-0.567071 6.5,0.162515 2.671368,0.617044 8.565985,1.320413 13.099149,1.563042 15.186973,0.812855 24.712428,-4.152457 24.712428,-12.88179 0,-3.546438 -0.55138,-4.575009 -4.132015,-7.708059 -2.272609,-1.988529 -6.913316,-5.32856 -10.312683,-7.422291 -5.803698,-3.574602 -6.144002,-3.66609 -5.579511,-1.5 0.330637,1.268731 -0.459724,0.05678 -1.756356,-2.693216 -3.333067,-7.069031 -7.220598,-11.325157 -10.984261,-12.02573 -4.045721,-0.753076 -12.099085,2.681944 -15.948182,6.802415 -1.526903,1.634556 -2.472952,2.18697 -2.105516,1.229447 0.573681,-1.49499 0.376418,-1.583156 -1.406839,-0.628787 -3.379882,1.808859 -6.230397,6.171561 -6.212044,9.507514 0.0094,1.713327 0.926779,6.490141 2.038564,10.615141 1.111785,4.125 2.293373,11.866887 2.625752,17.204194 0.653291,10.490486 0.520978,10.295806 6.997433,10.295806 2.805386,0 3.321113,-0.359605 3.321113,-2.315741 z m 9,-26.797753 c 7.536641,-1.501223 9.000752,-2.433053 8.978038,-5.714058 -0.02485,-3.589342 -2.913976,-10.554407 -5.142808,-12.398202 -1.260317,-1.042594 -1.418984,-0.798257 -1.061834,1.63516 0.585162,3.986967 -1.371908,7.288385 -4.091057,6.901278 -1.786488,-0.254329 -2.237594,-1.070912 -2.486962,-4.501841 -0.255131,-3.510229 0.08753,-4.448104 2.109095,-5.772685 1.327545,-0.869841 3.114205,-1.312727 3.970356,-0.984191 2.952117,1.132833 7.006073,8.316026 7.480638,13.254918 0.563791,5.867482 -0.831309,7.309464 -7.506013,7.758255 -2.612199,0.175638 -3.624453,0.09525 -2.249453,-0.178634 z m 0,-12.386506 c 0,-0.55 -0.198442,-1 -0.440983,-1 -0.242541,0 -0.719098,0.45 -1.059017,1 -0.339919,0.55 -0.141476,1 0.440983,1 0.582459,0 1.059017,-0.45 1.059017,-1 z m 0,-4.5 c 0,-0.825 -0.675,-1.5 -1.5,-1.5 -0.825,0 -1.5,0.675 -1.5,1.5 0,0.825 0.675,1.5 1.5,1.5 0.825,0 1.5,-0.675 1.5,-1.5 z m 36.55534,-16.216382 c -0.376865,-0.982094 -4.926672,-1.283618 -19.368968,-1.283618 -20.38408,0 -20.080617,-0.0754 -23.085415,5.73572 -1.096767,2.12109 -1.023109,2.18518 1.436601,1.25 3.604927,-1.37059 7.624658,-1.178086 9.798494,0.469249 1.128085,0.854864 3.100737,1.186131 5.115907,0.859114 2.857906,-0.463774 3.620514,-0.08562 5.927824,2.939417 1.456382,1.909415 3.354139,5.544165 4.217238,8.077222 1.267446,3.719748 2.645664,5.340744 7.165709,8.427973 3.078041,2.102328 6.303125,5.208792 7.166854,6.903254 1.492468,2.927922 1.584014,2.207866 1.844371,-14.506936 0.150676,-9.673277 0.0523,-18.165405 -0.218615,-18.871395 z m -18.01513,18.158376 c -2.321847,-5.556963 -5.486672,-9.441994 -7.691638,-9.441994 -1.108381,0 -1.853499,0.3375 -1.655817,0.75 2.73536,5.707838 4.466111,8.123195 7.12755,9.946884 1.748832,1.198346 3.298234,2.20678 3.443115,2.240964 0.144881,0.03418 -0.405563,-1.538951 -1.22321,-3.495854 z m -25.109116,-15.604324 c 1.408708,-2.823821 1.431809,-5.033907 0.03805,-3.640148 -0.673897,0.673897 -2.451061,6.802478 -1.97258,6.802478 0.196324,0 1.066862,-1.423049 1.93453,-3.16233 z"
             id="path3825" />
          <path
             style="fill:#a28f74"
             d="m -97.571341,11.56457 c -0.266004,-0.693292 -0.366199,-20.610531 -0.222656,-44.260531 l 0.260987,-43 44,0 44,0 0,44 0,44 -43.777344,0.260531 c -34.486805,0.205241 -43.879983,-0.007 -44.260987,-1 z m 7.451995,-4.793564 c 1.466607,-6.838552 4.27786,-12.049931 8.500087,-15.757096 3.204981,-2.81401 8.9002,-5.189938 12.474955,-5.204294 1.981426,-0.008 0.894532,-15.238597 -1.784457,-25.005577 -2.647288,-9.651409 -2.618834,-12.961132 0.145751,-16.953415 2.126214,-3.070424 3.575534,-4.101435 9.911972,-7.051136 1.92213,-0.894779 2.964367,-2.440108 3.75,-5.560138 0.598415,-2.376523 1.088028,-4.796682 1.088028,-5.378131 0,-0.707478 -6.580365,-1.05718 -19.893011,-1.05718 -17.217334,0 -19.974653,0.212756 -20.5,1.581788 -0.333844,0.869983 -0.606989,20.444983 -0.606989,43.499999 l 0,41.918213 2.917136,0 c 2.693475,0 2.999894,-0.38589 3.996528,-5.033033 z m 45.086336,2.475853 c 0,-4.848533 -2.184466,-11.210921 -5.037573,-14.672235 l -2.860923,-3.470796 -9.013251,0.105093 -9.013251,0.105093 -4.570089,4.485204 c -3.148898,3.090409 -5.026421,6.021836 -6.037502,9.426514 -0.807076,2.71772 -1.467411,5.309634 -1.467411,5.759808 0,0.450175 8.55,0.818499 19,0.818499 l 19,0 0,-2.55718 z m 34.914047,-20.69282 c -0.05395,-14.592349 -0.404815,-22.185966 -0.942253,-20.39255 -2.3689,7.904952 -9.120755,10.82051 -26.471794,11.43094 -7.15,0.251545 -13.732433,0.838424 -14.627629,1.304175 -0.895196,0.465752 -1.848953,2.004602 -2.11946,3.419667 -0.388524,2.032431 0.417687,3.508672 3.838257,7.02818 4.399046,4.526286 7.408832,11.692854 7.408832,17.641089 l 0,2.818499 16.5,0 16.5,0 -0.08595,-23.25 z m -69.447877,4.83561 c 2.46278,-2.427914 5.872571,-4.720736 7.577312,-5.09516 1.704742,-0.374424 2.884549,-0.895752 2.621795,-1.158506 -1.240941,-1.240941 -8.414223,1.993486 -11.839959,5.338628 -3.455831,3.37453 -4.677728,5.329428 -3.331125,5.329428 0.271807,0 2.509196,-1.986475 4.971977,-4.41439 z m 23.53383,-7.401351 c 0,-3.309507 1.635868,-5.921835 4.775141,-7.625457 2.717311,-1.47463 2.711008,-1.478922 -2.275141,-1.549173 -3.690096,-0.05199 -4.569574,-0.321786 -3.357032,-1.02983 1.068445,-0.6239 3.341406,-0.567071 6.5,0.162515 2.671368,0.617044 8.565985,1.320413 13.099149,1.563042 15.186973,0.812855 24.712428,-4.152457 24.712428,-12.88179 0,-3.546438 -0.55138,-4.575009 -4.132015,-7.708059 -2.272609,-1.988529 -6.913316,-5.32856 -10.312683,-7.422291 -5.803698,-3.574602 -6.144002,-3.66609 -5.579511,-1.5 0.330637,1.268731 -0.459724,0.05678 -1.756356,-2.693216 -3.333067,-7.069031 -7.220598,-11.325157 -10.984261,-12.02573 -4.045721,-0.753076 -12.099085,2.681944 -15.948182,6.802415 -1.526903,1.634556 -2.472952,2.18697 -2.105516,1.229447 0.573681,-1.49499 0.376418,-1.583156 -1.406839,-0.628787 -3.379882,1.808859 -6.230397,6.171561 -6.212044,9.507514 0.0094,1.713327 0.926779,6.490141 2.038564,10.615141 1.111785,4.125 2.293373,11.866887 2.625752,17.204194 0.653291,10.490486 0.520978,10.295806 6.997433,10.295806 2.805386,0 3.321113,-0.359605 3.321113,-2.315741 z m 9,-26.797753 c 7.536641,-1.501223 9.000752,-2.433053 8.978038,-5.714058 -0.02485,-3.589342 -2.913976,-10.554407 -5.142808,-12.398202 -1.260317,-1.042594 -1.418984,-0.798257 -1.061834,1.63516 0.585162,3.986967 -1.371908,7.288385 -4.091057,6.901278 -1.786488,-0.254329 -2.237594,-1.070912 -2.486962,-4.501841 -0.255131,-3.510229 0.08753,-4.448104 2.109095,-5.772685 1.327545,-0.869841 3.114205,-1.312727 3.970356,-0.984191 2.952117,1.132833 7.006073,8.316026 7.480638,13.254918 0.563791,5.867482 -0.831309,7.309464 -7.506013,7.758255 -2.612199,0.175638 -3.624453,0.09525 -2.249453,-0.178634 z m 0,-12.386506 c 0,-0.55 -0.198442,-1 -0.440983,-1 -0.242541,0 -0.719098,0.45 -1.059017,1 -0.339919,0.55 -0.141476,1 0.440983,1 0.582459,0 1.059017,-0.45 1.059017,-1 z m 0,-4.5 c 0,-0.825 -0.675,-1.5 -1.5,-1.5 -0.825,0 -1.5,0.675 -1.5,1.5 0,0.825 0.675,1.5 1.5,1.5 0.825,0 1.5,-0.675 1.5,-1.5 z m 36.55534,-16.216382 c -0.376865,-0.982094 -4.926672,-1.283618 -19.368968,-1.283618 -20.38408,0 -20.080617,-0.0754 -23.085415,5.73572 -1.096767,2.12109 -1.023109,2.18518 1.436601,1.25 3.604927,-1.37059 7.624658,-1.178086 9.798494,0.469249 1.128085,0.854864 3.100737,1.186131 5.115907,0.859114 2.857906,-0.463774 3.620514,-0.08562 5.927824,2.939417 1.456382,1.909415 3.354139,5.544165 4.217238,8.077222 1.267446,3.719748 2.645664,5.340744 7.165709,8.427973 3.078041,2.102328 6.303125,5.208792 7.166854,6.903254 1.492468,2.927922 1.584014,2.207866 1.844371,-14.506936 0.150676,-9.673277 0.0523,-18.165405 -0.218615,-18.871395 z m -18.01513,18.158376 c -2.321847,-5.556963 -5.486672,-9.441994 -7.691638,-9.441994 -1.108381,0 -1.853499,0.3375 -1.655817,0.75 2.73536,5.707838 4.466111,8.123195 7.12755,9.946884 1.748832,1.198346 3.298234,2.20678 3.443115,2.240964 0.144881,0.03418 -0.405563,-1.538951 -1.22321,-3.495854 z m -25.109116,-15.604324 c 1.408708,-2.823821 1.431809,-5.033907 0.03805,-3.640148 -0.673897,0.673897 -2.451061,6.802478 -1.97258,6.802478 0.196324,0 1.066862,-1.423049 1.93453,-3.16233 z"
             id="path3823" />
          <path
             style="fill:#796994"
             d="m -97.355962,12.147754 c -0.372376,-0.372377 -0.677048,-20.128903 -0.677048,-43.903393 0,-38.494282 0.173161,-43.292792 1.581788,-43.833333 2.380825,-0.913609 84.724104,-0.699587 86.178973,0.223991 0.98935,0.628059 1.204625,10.150683 1,44.234688 L -9.53301,12.304039 -53.105962,12.56442 c -23.965124,0.14321 -43.877624,-0.04429 -44.25,-0.416666 z m 7.240249,-5.393686 c 1.315982,-6.136214 3.446714,-10.519008 6.946865,-14.289305 2.822261,-3.040089 7.215605,-5.685447 9.336178,-5.621582 0.714813,0.02153 -0.05034,0.643488 -1.70034,1.382134 -3.546686,1.587725 -10.16361,8.248448 -9.175661,9.236397 0.378199,0.378198 2.65696,-1.36767 5.063914,-3.879706 2.689901,-2.807336 5.674021,-4.855134 7.744014,-5.314189 2.919184,-0.647377 3.101353,-0.851827 1.367733,-1.535029 -1.844794,-0.727013 -1.814629,-0.793633 0.388706,-0.858464 2.374956,-0.06988 2.385493,-0.120651 1.830713,-8.820285 -0.306896,-4.8125 -1.483722,-12.125 -2.61517,-16.25 -2.647288,-9.651409 -2.618834,-12.961132 0.145751,-16.953415 2.126214,-3.070424 3.575534,-4.101435 9.911972,-7.051136 1.92213,-0.894779 2.964367,-2.440108 3.75,-5.560138 0.598415,-2.376523 1.088028,-4.796682 1.088028,-5.378131 0,-0.707478 -6.580365,-1.05718 -19.893011,-1.05718 -17.217334,0 -19.974653,0.212756 -20.5,1.581788 -0.333844,0.869983 -0.606989,20.444983 -0.606989,43.499999 l 0,41.918213 2.917136,0 c 2.694771,0 2.999692,-0.384945 4.000161,-5.049971 z m 45.082703,2.492791 c 0,-4.848533 -2.184466,-11.210921 -5.037573,-14.672235 l -2.860923,-3.470796 -9.013251,0.105093 -9.013251,0.105093 -4.570089,4.485204 c -3.148898,3.090409 -5.026421,6.021836 -6.037502,9.426514 -0.807076,2.71772 -1.467411,5.309634 -1.467411,5.759808 0,0.450175 8.55,0.818499 19,0.818499 l 19,0 0,-2.55718 z m 34.914047,-20.69282 c -0.05395,-14.592349 -0.404815,-22.185966 -0.942253,-20.39255 -2.3689,7.904952 -9.120755,10.82051 -26.471794,11.43094 -7.15,0.251545 -13.732433,0.838424 -14.627629,1.304175 -0.895196,0.465752 -1.848953,2.004602 -2.11946,3.419667 -0.388524,2.032431 0.417687,3.508672 3.838257,7.02818 4.399046,4.526286 7.408832,11.692854 7.408832,17.641089 l 0,2.818499 16.5,0 16.5,0 -0.08595,-23.25 z m -46.461689,0.03024 c 0.09873,-0.154134 0.59984,-2.075798 1.113576,-4.270366 0.693399,-2.962048 1.707031,-4.368893 3.934066,-5.460191 l 3,-1.470068 -3,-0.671494 -3,-0.671494 2.848871,-0.118315 c 1.566879,-0.06507 4.362255,0.599833 6.211947,1.477569 2.864736,1.359406 4.761994,1.443871 12.803723,0.570017 10.835578,-1.177448 16.842027,-3.730892 19.114852,-8.126052 2.16669,-4.189915 1.886794,-7.45121 -0.926424,-10.794529 -2.747205,-3.264868 -16.171537,-12.578653 -18.130117,-12.578653 -0.698178,0 -2.057278,-1.747166 -3.02022,-3.882591 -2.201804,-4.882727 -7.697014,-9.784073 -10.969547,-9.784073 -3.32055,0 -9.020905,2.448237 -13.300407,5.712372 -1.911236,1.457771 -3.14429,2.115434 -2.74012,1.461473 0.566961,-0.917362 0.143507,-0.919584 -1.853412,-0.0097 -3.009739,1.371329 -6.472505,6.522036 -6.692263,9.954438 -0.08386,1.309794 1.041287,7.610626 2.500323,14.001849 1.459037,6.391196 2.652794,14.356335 2.652794,17.700283 0,6.804435 1.21177,8.259959 6.336702,7.611361 1.61488,-0.204375 3.016925,-0.4977 3.115656,-0.651833 z m 9.297642,-29.442521 c 0.6875,-0.277412 1.8125,-0.277412 2.5,0 0.6875,0.277413 0.125,0.504386 -1.25,0.504386 -1.375,0 -1.9375,-0.226973 -1.25,-0.504386 z m 6.5,-1.5 c 2.265958,-0.827598 2.778169,-1.649775 2.910037,-4.671052 l 0.160037,-3.666667 0.418675,3.45586 c 0.440187,3.633425 -1.514907,6.125479 -4.679879,5.965193 -0.857378,-0.04342 -0.32137,-0.530921 1.19113,-1.083334 z m -9.583333,-8.504386 c -0.366667,-0.366666 -0.666667,-2.252675 -0.666667,-4.191129 0,-3.200449 0.123867,-3.355066 1.347357,-1.681843 0.973543,1.331399 1.553012,1.509862 2.088613,0.643242 0.977592,-1.581777 -0.140279,-4.404384 -1.428907,-3.607968 -0.553885,0.342319 -1.007063,0.386674 -1.007063,0.09857 0,-0.288109 0.942457,-1.028221 2.094349,-1.644695 1.738239,-0.930277 2.519546,-0.723718 4.595014,1.214816 2.644802,2.470305 5.759232,7.720416 5.018975,8.460673 -0.241524,0.241524 -0.990824,-0.892762 -1.665111,-2.520636 -0.674287,-1.627874 -1.972358,-3.632714 -2.884602,-4.455201 -1.517055,-1.367789 -1.662987,-1.154766 -1.709726,2.495763 -0.03008,2.349149 -0.647202,4.368309 -1.5,4.907823 -1.724272,1.090842 -3.364505,1.198317 -4.282232,0.280589 z m 3.333333,-2.333333 c 0,-0.55 -0.198442,-1 -0.440983,-1 -0.242541,0 -0.719098,0.45 -1.059017,1 -0.339919,0.55 -0.141476,1 0.440983,1 0.582459,0 1.059017,-0.45 1.059017,-1 z m 36.55534,-20.716382 c -0.376865,-0.982094 -4.926672,-1.283618 -19.368968,-1.283618 -20.38408,0 -20.080617,-0.0754 -23.085415,5.73572 -1.096767,2.12109 -1.023109,2.18518 1.436601,1.25 3.604927,-1.37059 7.624658,-1.178086 9.798494,0.469249 1.128085,0.854864 3.100737,1.186131 5.115907,0.859114 2.857906,-0.463774 3.620514,-0.08562 5.927824,2.939417 1.456382,1.909415 3.354139,5.544165 4.217238,8.077222 1.267446,3.719748 2.645664,5.340744 7.165709,8.427973 3.078041,2.102328 6.303125,5.208792 7.166854,6.903254 1.492468,2.927922 1.584014,2.207866 1.844371,-14.506936 0.150676,-9.673277 0.0523,-18.165405 -0.218615,-18.871395 z m -18.880022,16.065816 c -2.967044,-5.851007 -5.714772,-8.561118 -7.537685,-7.434496 -1.969596,1.217278 1.968357,8.322612 6.042126,10.90194 1.797247,1.137936 3.422293,1.914403 3.611214,1.725482 0.188921,-0.188921 -0.763124,-2.525738 -2.115655,-5.192926 z m -24.244224,-13.511764 c 1.408708,-2.823821 1.431809,-5.033907 0.03805,-3.640148 -0.673897,0.673897 -2.451061,6.802478 -1.97258,6.802478 0.196324,0 1.066862,-1.423049 1.93453,-3.16233 z"
             id="path3821" />
          <path
             style="fill:#a5685a"
             d="m -93.559801,11.930544 c 2.581634,-0.552989 3.071304,-1.211486 3.718043,-4.999946 0.409659,-2.399695 1.663195,-6.260162 2.785636,-8.578816 2.039567,-4.213182 7.023112,-9.802672 7.023112,-7.877045 0,0.56063 -0.941681,1.871536 -2.092624,2.913126 -1.150943,1.041589 -2.535006,2.720396 -3.075694,3.730681 -0.84616,1.581064 -0.728809,1.698054 0.842624,0.840037 1.004132,-0.548266 3.518331,-2.797702 5.58711,-4.998746 2.068779,-2.201045 5.062513,-4.287669 6.652743,-4.636942 5.921467,-1.300573 6.217993,-6.542736 1.498038,-26.483228 -3.518788,-14.865897 -2.09208,-19.518265 7.252895,-23.651057 4.715623,-2.085472 5.349408,-2.745685 6.336671,-6.600904 0.60334,-2.356016 1.282087,-4.836904 1.508327,-5.513085 0.314281,-0.939316 -4.357737,-1.298435 -19.799372,-1.521898 -11.115895,-0.160863 -1.085718,-0.2927 22.289282,-0.29297 23.375,-2.71e-4 33.643386,0.131494 22.818636,0.292809 l -19.681364,0.293301 -2.182704,3.531688 c -1.200487,1.942429 -1.995989,3.718402 -1.767783,3.946609 0.228206,0.228206 2.089545,-0.09904 4.136308,-0.727206 3.025657,-0.928601 4.324831,-0.854477 6.949147,0.396482 1.775268,0.846234 4.62959,1.332637 6.342937,1.080895 3.61932,-0.531787 5.816476,1.934538 9.851448,11.058326 1.634882,3.69676 3.513657,6.114113 5.896458,7.586765 12.564818,7.765484 13.000613,19.28187 0.938618,24.804034 -4.796298,2.195818 -7.383999,2.613392 -18.923967,3.05374 -7.986961,0.30477 -13.740066,0.958502 -14.292435,1.624066 -2.654343,3.198288 -2.194096,6.077613 1.531833,9.5832 4.252274,4.000805 6.918039,9.475587 7.910133,16.245335 l 0.692551,4.725755 16.140092,0.30081 c 8.877051,0.165445 -3.209908,0.348114 -26.859908,0.40593 -23.65,0.05782 -41.662056,-0.18147 -40.026791,-0.531746 z M -45.03301,9.246859 c 0,-4.848533 -2.184466,-11.210921 -5.037573,-14.672235 l -2.860923,-3.470796 -9.013251,0.105093 -9.013251,0.105093 -4.570089,4.485204 c -3.148898,3.090409 -5.026421,6.021836 -6.037502,9.426514 -0.807076,2.71772 -1.467411,5.309634 -1.467411,5.759808 0,0.450175 8.55,0.818499 19,0.818499 l 19,0 0,-2.55718 z m -13.427404,-20.026714 c 1.451343,-0.38975 2.350583,-1.809454 3,-4.736345 0.707692,-3.18953 1.638137,-4.525696 3.927404,-5.639952 l 3,-1.460191 -3,-0.671494 -3,-0.671494 2.848871,-0.118315 c 1.566879,-0.06507 4.362255,0.599833 6.211947,1.477569 2.864736,1.359406 4.761994,1.443871 12.803723,0.570017 10.835578,-1.177448 16.842027,-3.730892 19.114852,-8.126052 2.16669,-4.189915 1.886794,-7.45121 -0.926424,-10.794529 -2.747205,-3.264868 -16.171537,-12.578653 -18.130117,-12.578653 -0.698178,0 -2.057278,-1.747166 -3.02022,-3.882591 -2.201804,-4.88273 -7.697014,-9.784076 -10.969547,-9.784076 -3.32055,0 -9.020905,2.448237 -13.300407,5.712372 -1.911236,1.457771 -3.14429,2.115434 -2.74012,1.461473 0.566961,-0.917362 0.143507,-0.919584 -1.853412,-0.0097 -3.009739,1.371329 -6.472505,6.522036 -6.692263,9.954438 -0.08386,1.309794 1.041287,7.610626 2.500323,14.001849 1.459037,6.391196 2.652794,14.288696 2.652794,17.549973 0,7.695421 1.613639,9.345947 7.572596,7.745701 z m 11.177404,-30.078387 c 0.6875,-0.277412 1.8125,-0.277412 2.5,0 0.6875,0.277413 0.125,0.504386 -1.25,0.504386 -1.375,0 -1.9375,-0.226973 -1.25,-0.504386 z m 7,-1.558214 c 1.656752,-0.799021 2.292196,-2.033589 2.410037,-4.682319 l 0.160037,-3.597186 0.418675,3.45586 c 0.413372,3.412082 -1.499932,6.147755 -4.179879,5.97646 -0.582378,-0.03722 -0.04637,-0.555991 1.19113,-1.152815 z m -9.55,-8.979505 c -0.66,-0.66 -1.186316,-2.5725 -1.169591,-4.25 0.02571,-2.578851 0.18968,-2.77642 1.06146,-1.278968 1.260414,2.165007 2.908131,1.350795 2.908131,-1.437038 0,-1.409577 -0.467581,-1.868544 -1.5,-1.472368 -2.227118,0.854626 -1.816007,-0.122137 0.594349,-1.41212 1.738239,-0.930277 2.519546,-0.723718 4.595014,1.214816 2.644802,2.470305 5.759232,7.720416 5.018975,8.460673 -0.241524,0.241524 -0.990824,-0.892762 -1.665111,-2.520636 -0.674287,-1.627874 -2.118601,-3.767584 -3.209585,-4.754911 -1.939167,-1.754922 -1.968256,-1.733974 -1.298388,0.934991 0.456534,1.818976 0.140124,3.562051 -0.94807,5.222846 -1.830722,2.794034 -2.64572,3.034179 -4.387184,1.292715 z m 2.8,-1.8 c 0,-0.55 -0.45,-1 -1,-1 -0.55,0 -1,0.45 -1,1 0,0.55 0.45,1 1,1 0.55,0 1,-0.45 1,-1 z m 17.675318,-4.650566 c -2.967044,-5.851007 -5.714772,-8.561118 -7.537685,-7.434496 -1.969596,1.217278 1.968357,8.322612 6.042126,10.90194 1.797247,1.137936 3.422293,1.914403 3.611214,1.725482 0.188921,-0.188921 -0.763124,-2.525738 -2.115655,-5.192926 z M -52.37051,-75.058461 c -1.380549,-0.597551 -2.380861,1.132798 -3.100053,5.3625 l -0.680136,4 2.308845,-4.5 c 1.269864,-2.475 1.931969,-4.663125 1.471344,-4.8625 z m -45.204024,43.3625 c 2.38e-4,-23.65 0.131039,-33.182057 0.290669,-21.18235 0.15963,11.999708 0.159436,31.349708 -4.32e-4,43 -0.159868,11.650293 -0.290474,1.83235 -0.290237,-21.81765 z m 19.982654,20.055166 c 1.067621,-0.855341 2.642621,-1.51964 3.5,-1.476219 1.346597,0.0682 1.354614,0.154683 0.05887,0.635128 -0.825,0.305899 -2.4,0.970197 -3.5,1.476219 -1.967997,0.905317 -1.968939,0.895154 -0.05887,-0.635128 z"
             id="path3819" />
          <path
             style="fill:#68596b"
             d="m -93.559801,11.930544 c 2.581634,-0.552989 3.071304,-1.211486 3.718043,-4.999946 0.409659,-2.399695 1.663195,-6.260162 2.785636,-8.578816 2.039567,-4.213182 7.023112,-9.802672 7.023112,-7.877045 0,0.56063 -0.941681,1.871536 -2.092624,2.913126 -1.150943,1.041589 -2.535006,2.720396 -3.075694,3.730681 -0.84616,1.581064 -0.728809,1.698054 0.842624,0.840037 1.004132,-0.548266 3.518331,-2.797702 5.58711,-4.998746 2.068779,-2.201045 5.062513,-4.287669 6.652743,-4.636942 5.921467,-1.300573 6.217993,-6.542736 1.498038,-26.483228 -3.518788,-14.865897 -2.09208,-19.518265 7.252895,-23.651057 4.715623,-2.085472 5.349408,-2.745685 6.336671,-6.600904 0.60334,-2.356016 1.282087,-4.836904 1.508327,-5.513085 0.314281,-0.939316 -4.357737,-1.298435 -19.799372,-1.521898 -11.115895,-0.160863 -1.085718,-0.2927 22.289282,-0.29297 23.375,-2.71e-4 33.643386,0.131494 22.818636,0.292809 l -19.681364,0.293301 -2.182704,3.531688 c -1.200487,1.942429 -1.995989,3.718402 -1.767783,3.946609 0.228206,0.228206 2.089545,-0.09904 4.136308,-0.727206 3.025657,-0.928601 4.324831,-0.854477 6.949147,0.396482 1.775268,0.846234 4.62959,1.332637 6.342937,1.080895 3.61932,-0.531787 5.816476,1.934538 9.851448,11.058326 1.634882,3.69676 3.513657,6.114113 5.896458,7.586765 12.564818,7.765484 13.000613,19.28187 0.938618,24.804034 -4.796298,2.195818 -7.383999,2.613392 -18.923967,3.05374 -7.986961,0.30477 -13.740066,0.958502 -14.292435,1.624066 -2.654343,3.198288 -2.194096,6.077613 1.531833,9.5832 4.252274,4.000805 6.918039,9.475587 7.910133,16.245335 l 0.692551,4.725755 16.140092,0.30081 16.140092,0.30081 -17.25,0.223434 -17.25,0.223435 0,-4.803656 c 0,-5.354949 -3.692116,-13.923034 -6.840234,-15.873744 -1.045069,-0.64757 -5.476255,-1.299307 -9.847081,-1.448305 -6.970052,-0.237604 -8.349149,0.01548 -11.218742,2.058812 -5.102138,3.633042 -8.976031,9.697311 -9.704975,15.192361 l -0.646629,4.874532 -6.62117,-0.118315 c -4.573946,-0.08173 -5.701872,-0.315229 -3.64796,-0.75518 z m 35.099387,-22.710399 c 1.451343,-0.38975 2.350583,-1.809454 3,-4.736345 0.707692,-3.18953 1.638137,-4.525696 3.927404,-5.639952 l 3,-1.460191 -3,-0.671494 -3,-0.671494 2.848871,-0.118315 c 1.566879,-0.06507 4.362255,0.599833 6.211947,1.477569 2.868729,1.361301 4.760075,1.44408 12.866923,0.56315 10.985202,-1.193707 16.044009,-3.245484 18.686581,-7.578999 2.547933,-4.178317 2.365795,-7.855997 -0.561353,-11.334715 -2.747205,-3.264868 -16.171537,-12.578653 -18.130117,-12.578653 -0.698178,0 -2.057278,-1.747166 -3.02022,-3.882591 -2.201804,-4.88273 -7.697014,-9.784076 -10.969547,-9.784076 -3.085556,0 -8.533129,2.222986 -12.675058,5.1723 -1.719279,1.224234 -3.966089,2.287774 -4.992912,2.363422 -4.42543,0.326031 -8.093972,8.291633 -6.605901,14.343569 3.511735,14.282121 4.800338,21.413672 4.819144,26.670709 0.02799,7.823304 1.618577,9.470838 7.594238,7.866106 z m 11.177404,-30.078387 c 0.6875,-0.277412 1.8125,-0.277412 2.5,0 0.6875,0.277413 0.125,0.504386 -1.25,0.504386 -1.375,0 -1.9375,-0.226973 -1.25,-0.504386 z m 7,-1.558214 c 1.656752,-0.799021 2.292196,-2.033589 2.410037,-4.682319 l 0.160037,-3.597186 0.418675,3.45586 c 0.413372,3.412082 -1.499932,6.147755 -4.179879,5.97646 -0.582378,-0.03722 -0.04637,-0.555991 1.19113,-1.152815 z m -9.55,-8.979505 c -0.66,-0.66 -1.186316,-2.5725 -1.169591,-4.25 0.02571,-2.578851 0.18968,-2.77642 1.06146,-1.278968 1.260414,2.165007 2.908131,1.350795 2.908131,-1.437038 0,-1.409577 -0.467581,-1.868544 -1.5,-1.472368 -2.227118,0.854626 -1.816007,-0.122137 0.594349,-1.41212 1.738239,-0.930277 2.519546,-0.723718 4.595014,1.214816 2.644802,2.470305 5.759232,7.720416 5.018975,8.460673 -0.241524,0.241524 -0.990824,-0.892762 -1.665111,-2.520636 -0.674287,-1.627874 -2.118601,-3.767584 -3.209585,-4.754911 -1.939167,-1.754922 -1.968256,-1.733974 -1.298388,0.934991 0.456534,1.818976 0.140124,3.562051 -0.94807,5.222846 -1.830722,2.794034 -2.64572,3.034179 -4.387184,1.292715 z m 2.8,-1.8 c 0,-0.55 -0.45,-1 -1,-1 -0.55,0 -1,0.45 -1,1 0,0.55 0.45,1 1,1 0.55,0 1,-0.45 1,-1 z m 18.006295,-4.263222 c -2.599031,-5.529199 -6.038211,-8.953121 -7.86128,-7.826402 -1.977275,1.222023 1.950424,8.320494 6.034744,10.906502 1.797247,1.137936 3.417588,1.919108 3.600758,1.735938 0.183171,-0.18317 -0.61523,-2.350387 -1.774222,-4.816038 z M -52.37051,-75.058461 c -1.380549,-0.597551 -2.380861,1.132798 -3.100053,5.3625 l -0.680136,4 2.308845,-4.5 c 1.269864,-2.475 1.931969,-4.663125 1.471344,-4.8625 z m -45.204024,43.3625 c 2.38e-4,-23.65 0.131039,-33.182057 0.290669,-21.18235 0.15963,11.999708 0.159436,31.349708 -4.32e-4,43 -0.159868,11.650293 -0.290474,1.83235 -0.290237,-21.81765 z m 19.982654,20.055166 c 1.067621,-0.855341 2.642621,-1.51964 3.5,-1.476219 1.346597,0.0682 1.354614,0.154683 0.05887,0.635128 -0.825,0.305899 -2.4,0.970197 -3.5,1.476219 -1.967997,0.905317 -1.968939,0.895154 -0.05887,-0.635128 z"
             id="path3817" />
          <path
             style="fill:#5c4837"
             d="m -89.921979,8.239112 c 0.892928,-4.779609 4.351179,-13.435073 5.367922,-13.435073 0.325278,0 0.109749,0.9 -0.478953,2 -1.780272,3.326469 0.558014,2.289989 4.665668,-2.068128 2.108883,-2.237471 5.940783,-5.081932 8.515335,-6.321024 4.511551,-2.171341 4.737447,-2.186975 6.240213,-0.431872 2.655316,3.101184 9.578784,2.135806 9.578784,-1.335625 0,-3.626189 2.893337,-7.853026 5.27568,-7.707169 2.15452,0.131909 2.158013,0.149218 0.111326,0.551597 -2.067826,0.406535 -4.387006,4.011366 -4.387006,6.818968 0,0.776953 1.782451,3.061827 3.961003,5.077498 4.335137,4.01102 7.461276,11.473551 6.758391,16.133224 -0.389155,2.579839 -0.430644,2.54108 -0.569562,-0.532088 -0.217222,-4.805424 -3.95342,-12.826667 -6.86228,-14.732625 -1.761509,-1.154185 -4.82245,-1.65739 -10.290852,-1.69177 -6.542869,-0.04113 -8.292932,0.313761 -10.979058,2.226452 -5.030263,3.581863 -8.903482,9.671269 -9.628674,15.13803 -0.643254,4.849088 -0.666162,4.874532 -4.388693,4.874532 l -3.742064,0 0.85282,-4.564927 z m 23.174983,-27.935073 c 0.0075,-2.75 0.201713,-3.756313 0.431567,-2.23625 0.229855,1.520062 0.223712,3.770062 -0.01365,5 -0.237362,1.229937 -0.425424,-0.01375 -0.417917,-2.76375 z m 18.713986,-2.433578 c 0,-0.513467 -1.0125,-1.129358 -2.25,-1.368645 -1.2375,-0.239287 -0.713838,-0.285515 1.163693,-0.102729 3.991825,0.388622 6.74709,2.404952 3.286307,2.404952 -1.21,0 -2.2,-0.42011 -2.2,-0.933578 z m 17.25,0.244252 c 0.9625,-0.251527 2.5375,-0.251527 3.5,0 0.9625,0.251528 0.175,0.457323 -1.75,0.457323 -1.925,0 -2.7125,-0.205795 -1.75,-0.457323 z m 6.5625,-0.993788 c 0.721875,-0.288871 1.584375,-0.253344 1.916667,0.07895 0.332291,0.332292 -0.258334,0.568641 -1.3125,0.52522 -1.164943,-0.04798 -1.4019,-0.284941 -0.604167,-0.604167 z m 5.873678,-2.267113 c 3.568171,-2.175669 5.312801,-4.88731 6.465877,-10.049773 0.700732,-3.137262 0.739757,-3.033685 0.376554,0.999399 -0.324374,3.601903 -1.112723,5.147797 -3.952219,7.75 -1.950861,1.78783 -4.116128,3.248919 -4.811705,3.246863 -0.695577,-0.0021 0.169095,-0.877976 1.921493,-1.946489 z m -50.049814,-4.686137 c -0.353593,-2.57974 -0.450184,-4.883149 -0.214647,-5.118687 0.235537,-0.235537 0.741219,1.658781 1.123738,4.209596 0.382518,2.550815 0.479109,4.854225 0.214646,5.118687 -0.264463,0.264463 -0.770145,-1.629855 -1.123737,-4.209596 z m -1.557417,-7.946969 c 0.04798,-1.164943 0.284941,-1.4019 0.604167,-0.604167 0.288871,0.721875 0.253344,1.584375 -0.07895,1.916667 -0.332292,0.332291 -0.568641,-0.258334 -0.52522,-1.3125 z m 56.258814,-2.97886 c -0.632845,-1.649167 -17.541181,-13.437807 -19.273721,-13.437807 -0.556974,0 -1.749615,-1.4625 -2.650313,-3.25 -2.924481,-5.803841 -7.437159,-9.75 -11.149732,-9.75 -3.387452,0 -10.313712,2.958038 -13.513995,5.771499 -0.9625,0.846162 -1.75,1.232176 -1.75,0.857808 0,-1.342887 -5.964077,2.435053 -7.051376,4.46669 -0.610866,1.141413 -1.37598,1.80998 -1.700254,1.485706 -0.950962,-0.950962 3.676761,-5.31118 7.100407,-6.689968 1.733173,-0.697993 4.501223,-2.256945 6.151223,-3.46434 5.331335,-3.901227 13.406412,-4.949554 16.246769,-2.109197 1.198724,1.198724 2.026044,1.286807 3.931576,0.418589 2.059878,-0.938544 2.777602,-0.735385 4.89997,1.386982 1.367625,1.367625 3.537035,5.071152 4.82091,8.230058 1.928989,4.746172 3.374579,6.500408 8.325218,10.102724 5.077536,3.694652 8.502516,7.543449 6.712787,7.543449 -0.275,0 -0.769761,-0.702987 -1.099469,-1.562193 z M -28.914218,-57.45057 c -2.862753,-5.913658 -5.602772,-8.693094 -7.961689,-8.076223 -1.843758,0.482153 -1.823431,0.675929 0.508563,4.848322 2.146158,3.839893 8.117144,9.033033 9.172547,7.97763 0.214903,-0.214903 -0.558837,-2.352281 -1.719421,-4.749729 z m -42.618792,14.254609 c -0.379677,-1.728657 -0.481874,-3.351459 -0.227105,-3.606228 0.254769,-0.254769 0.750716,0.974284 1.102105,2.731228 0.833651,4.168253 0.02576,4.976142 -0.875,0.875 z m 33.064293,-0.293128 c 0.375531,-0.986221 0.934692,-1.541221 1.242579,-1.233333 0.307887,0.307887 6.34e-4,1.114794 -0.682784,1.793128 -0.987616,0.980267 -1.10248,0.865403 -0.559795,-0.559795 z m -33.485346,-8.290205 c 0.04798,-1.164943 0.284941,-1.4019 0.604167,-0.604167 0.288871,0.721875 0.253344,1.584375 -0.07895,1.916667 -0.332292,0.332291 -0.568641,-0.258334 -0.52522,-1.3125 z m 22.121053,0.383333 c -0.66,-0.66 -1.147799,-2.5725 -1.083999,-4.25 0.06827,-1.794962 0.30857,-2.307125 0.583982,-1.244661 0.257389,0.992937 0.992688,1.63269 1.633999,1.421673 1.671231,-0.549904 2.096884,-4.720288 0.485569,-4.757421 -0.790854,-0.01823 -0.58508,-0.457438 0.513583,-1.096214 1.459065,-0.848317 2.345056,-0.587037 4.341822,1.280409 1.379779,1.290418 2.96674,3.246214 3.526581,4.346214 0.55984,1.1 -0.385116,0.425 -2.099902,-1.5 -3.109416,-3.490597 -3.116131,-3.492592 -2.499477,-0.742715 0.397191,1.771214 0.03421,3.64874 -1.014974,5.25 -1.830722,2.794034 -2.64572,3.034179 -4.387184,1.292715 z m 2.903799,-2.096201 c -1.283486,-1.283486 -2.585054,-0.291503 -1.634836,1.245982 0.368078,0.595563 1.127349,0.799712 1.687268,0.453663 0.683003,-0.422119 0.665748,-0.981465 -0.05243,-1.699645 z m -4.103799,-21.703799 c 0,-0.55 0.476558,-1 1.059017,-1 0.582459,0 0.780902,0.45 0.440983,1 -0.339919,0.55 -0.816476,1 -1.059017,1 -0.242541,0 -0.440983,-0.45 -0.440983,-1 z"
             id="path3815" />
          <path
             style="fill:#423330"
             d="m -90.03301,9.982178 c 0,-4.518324 2.94856,-12.135109 4.471441,-11.550724 0.72825,0.279455 3.057596,-1.283133 5.176325,-3.47242 2.118729,-2.189286 5.925179,-5.074817 8.458778,-6.41229 4.417187,-2.331808 4.653897,-2.355947 5.758474,-0.587237 1.288183,2.062709 6.082207,2.478328 9.219521,0.799288 1.630252,-0.872484 2.569756,-0.427465 5.684259,2.692487 2.052161,2.055752 2.532512,2.709131 1.067447,1.451953 -2.253593,-1.933816 -3.947358,-2.319355 -11,-2.503846 -7.598526,-0.19877 -8.693565,0.022051 -12.373975,2.495286 -4.852812,3.261089 -9.46227,11.198899 -9.46227,16.294692 0,3.464387 -0.145517,3.614672 -3.5,3.614672 -3.173123,0 -3.5,-0.263544 -3.5,-2.821861 z m 45.194949,-4.678139 c 0.02038,-1.65 0.244498,-2.203936 0.498042,-1.230968 0.253543,0.972967 0.236869,2.322967 -0.03705,3 -0.273927,0.677032 -0.481372,-0.119032 -0.460992,-1.769032 z m -21.922585,-24.5 c 0,-2.475 0.195016,-3.4875 0.433369,-2.25 0.238353,1.2375 0.238353,3.2625 0,4.5 -0.238353,1.2375 -0.433369,0.225 -0.433369,-2.25 z m 11.727636,2.059017 c 0,-0.517541 0.444846,-1.215913 0.988546,-1.551938 0.56686,-0.350339 0.734507,0.05106 0.393011,0.940983 -0.664791,1.732417 -1.381557,2.049387 -1.381557,0.610955 z m 8,-5.027632 c 0,-0.532739 0.675,-0.709594 1.5,-0.393011 0.825,0.316582 1.5,0.752459 1.5,0.968615 0,0.216156 -0.675,0.393011 -1.5,0.393011 -0.825,0 -1.5,-0.435877 -1.5,-0.968615 z m 17.269032,0.275624 c 0.972967,-0.253543 2.322967,-0.236869 3,0.03705 0.677032,0.273927 -0.119032,0.481372 -1.769032,0.460992 -1.65,-0.02038 -2.203936,-0.244498 -1.230968,-0.498042 z m 5.543468,-0.990123 c 0.721875,-0.288871 1.584375,-0.253344 1.916667,0.07895 0.332291,0.332292 -0.258334,0.568641 -1.3125,0.52522 -1.164943,-0.04798 -1.4019,-0.284941 -0.604167,-0.604167 z m 4.6875,-1.483864 c 1.1,-0.608388 2.921678,-1.832204 4.048173,-2.719591 1.126495,-0.887387 0.781895,-0.375931 -0.765777,1.136569 -1.547672,1.5125 -3.36935,2.736316 -4.048173,2.719591 -0.678822,-0.01672 -0.334223,-0.528181 0.765777,-1.136569 z m -48.421053,-3.416355 c 0.04798,-1.164943 0.284941,-1.4019 0.604167,-0.604167 0.288871,0.721875 0.253344,1.584375 -0.07895,1.916667 -0.332292,0.332291 -0.568641,-0.258334 -0.52522,-1.3125 z m 56.153056,-7.416667 c 0,-1.925 0.205795,-2.7125 0.457323,-1.75 0.251527,0.9625 0.251527,2.5375 0,3.5 -0.251528,0.9625 -0.457323,0.175 -0.457323,-1.75 z m -58.153056,-2.583333 c 0.04798,-1.164943 0.284941,-1.4019 0.604167,-0.604167 0.288871,0.721875 0.253344,1.584375 -0.07895,1.916667 -0.332292,0.332291 -0.568641,-0.258334 -0.52522,-1.3125 z m 54.326041,-5.666667 -1.904988,-2.25 2.25,1.904988 c 2.114445,1.790218 2.705241,2.595012 1.904988,2.595012 -0.189757,0 -1.202257,-1.0125 -2.25,-2.25 z m -56.326041,-1.333333 c 0.04798,-1.164943 0.284941,-1.4019 0.604167,-0.604167 0.288871,0.721875 0.253344,1.584375 -0.07895,1.916667 -0.332292,0.332291 -0.568641,-0.258334 -0.52522,-1.3125 z m 47.745596,-4.256083 c -2.711282,-2.053513 -3.436701,-3.161109 -2.765313,-4.22218 0.783273,-1.237894 0.912279,-1.23946 0.925457,-0.01123 0.0084,0.784946 1.477813,2.679157 3.265313,4.209359 4.201906,3.597071 3.311877,3.612088 -1.425457,0.02405 z m -25.612043,-2.348084 c -0.666875,-0.666875 -1.160299,-2.585 -1.096499,-4.2625 0.064,-1.682761 0.321008,-2.265519 0.573325,-1.3 0.251527,0.9625 1.150401,1.75 1.997498,1.75 1.142485,0 1.426483,-0.774633 1.099868,-3 -0.347552,-2.368025 -0.06791,-3 1.327484,-3 0.972284,0 2.088876,0.519529 2.481316,1.154508 0.450623,0.729124 0.273372,0.882479 -0.481065,0.416212 -0.843747,-0.521464 -1.033205,-0.05288 -0.645088,1.595491 0.574384,2.439465 -1.221689,6.92978 -3.006839,7.51732 -0.570625,0.187808 -1.583125,-0.204156 -2.25,-0.871031 z m 2.891299,-2.108701 c -1.283486,-1.283486 -2.585054,-0.291503 -1.634836,1.245982 0.368078,0.595563 1.127349,0.799712 1.687268,0.453663 0.683003,-0.422119 0.665748,-0.981465 -0.05243,-1.699645 z M -71.03301,-54.85498 c 0,-0.545794 1.2375,-2.083294 2.75,-3.416667 l 2.75,-2.424314 -2.5,3 c -1.375,1.65 -2.6125,3.1875 -2.75,3.416667 -0.1375,0.229166 -0.25,-0.02989 -0.25,-0.575686 z m 41.517962,-4.301148 c -2.363406,-5.241098 -4.816421,-7.397269 -7.460819,-6.557969 -1.147402,0.364171 -1.790416,1.140693 -1.42892,1.725605 0.361495,0.584911 -0.726335,0.04054 -2.417401,-1.209723 -4.199325,-3.104695 -10.798752,-2.378066 -16.796229,1.849346 -2.392565,1.686436 -4.616183,2.635746 -4.941373,2.109577 -0.32519,-0.526168 -0.08467,-0.956669 0.534485,-0.956669 0.619156,0 2.714711,-1.211968 4.656788,-2.693262 4.374399,-3.336517 14.086891,-4.516155 16.201833,-1.967805 1.025273,1.235378 1.775508,1.32575 3.705549,0.446365 1.987171,-0.905416 2.797468,-0.761252 4.530472,0.806038 2.228621,2.015515 6.326351,9.313299 5.623886,10.015764 -0.227309,0.22731 -1.221031,-1.37796 -2.208271,-3.567267 z"
             id="path3813" />
          <path
             style="fill:#332f31"
             d="m -90.027433,10.554039 c 0.0088,-3.538287 1.984059,-9.75 3.100444,-9.75 0.556607,0 0.733898,-0.45 0.393979,-1 -0.339919,-0.55 0.01328,-1 0.78489,-1 0.771608,0 3.729626,-2.230821 6.573374,-4.95738 5.38805,-5.166014 11.185285,-7.399071 13.416432,-5.167924 0.833739,0.833739 0.327912,1.125304 -1.952251,1.125304 -1.692656,0 -3.637756,0.675 -4.322445,1.5 -0.684689,0.825 -1.639789,1.5 -2.122445,1.5 -1.115999,0 -3.907584,2.807767 -5.996412,6.031172 -1.646108,2.540215 -3.087728,7.457501 -3.728829,12.718828 -0.08388,0.688375 -1.500215,1.25 -3.152314,1.25 -2.446097,0 -2.99897,-0.415427 -2.994423,-2.25 z m 29.028388,-20.672465 c 1.943681,-0.380857 4.050087,-1.011448 4.680902,-1.401313 0.630815,-0.389865 1.400446,-0.298659 1.710291,0.202681 0.78719,1.2737 -1.921093,2.142028 -6.256945,2.006098 l -3.668213,-0.114999 3.533965,-0.692467 z m 11.216035,-41.573366 c -0.6875,-0.780866 -1.197799,-2.676249 -1.133999,-4.211963 0.07025,-1.690927 0.296375,-2.101986 0.573325,-1.042206 0.251527,0.9625 1.046842,1.75 1.767367,1.75 1.72691,0 2.609452,-3.533855 1.227635,-4.915672 -0.779104,-0.779104 -0.756448,-1.084328 0.08049,-1.084328 2.004633,0 3.206497,3.48559 2.275194,6.598413 -0.477458,1.595873 -0.906783,2.339087 -0.954057,1.651587 -0.04727,-0.6875 -0.791277,-1.25 -1.653341,-1.25 -1.112312,0 -1.383087,0.580679 -0.932612,2 0.742716,2.34009 0.465018,2.452095 -1.25,0.504169 z m 22.314293,-0.797297 c 0.375531,-0.986221 0.934692,-1.541221 1.242579,-1.233333 0.307887,0.307887 6.34e-4,1.114794 -0.682784,1.793128 -0.987616,0.980267 -1.10248,0.865403 -0.559795,-0.559795 z m -1.105412,-4.773403 c -0.362533,-0.586592 -0.444683,-1.281 -0.182555,-1.543128 0.262128,-0.262129 0.743066,0.21781 1.068751,1.066531 0.676184,1.762107 0.09985,2.072058 -0.886196,0.476597 z m -4.586436,-7.683469 c -1.243871,-1.586056 -1.208501,-1.621426 0.377555,-0.377555 1.665748,1.306369 2.195479,2.127555 1.372445,2.127555 -0.207656,0 -0.995156,-0.7875 -1.75,-1.75 z m -8,-1 c -1.214319,-1.548375 -1.189022,-1.606981 0.219564,-0.508676 0.875605,0.682728 1.960252,0.907728 2.410326,0.5 0.450073,-0.407728 0.494612,-0.178824 0.09897,0.508676 -0.929787,1.61569 -1.09309,1.585769 -2.728863,-0.5 z m -13.139112,-0.374088 c 0.678334,-0.683418 1.485241,-0.990671 1.793128,-0.682784 0.307888,0.307887 -0.247112,0.867048 -1.233333,1.242579 -1.425198,0.542685 -1.540062,0.427821 -0.559795,-0.559795 z"
             id="path3811" />
        </g>
        <g
           id="g3851">
          <path
             sodipodi:type="arc"
             style="opacity:0.838565;color:#000000;fill:url(#radialGradient3885);fill-opacity:1;fill-rule:evenodd;stroke:none;stroke-width:0.50000042;marker:none;visibility:visible;display:inline;overflow:visible"
             id="path1538"
             sodipodi:cx="24.357143"
             sodipodi:cy="38.714287"
             sodipodi:rx="19.928572"
             sodipodi:ry="9.837245"
             d="m 44.285715,38.714287 c 0,5.43296 -8.922325,9.837245 -19.928572,9.837245 -11.006246,0 -19.9285713,-4.404285 -19.9285713,-9.837245 0,-5.432961 8.9223253,-9.837245 19.9285713,-9.837245 11.006247,0 19.928572,4.404284 19.928572,9.837245 z"
             transform="matrix(2.5459696,0,0,2.5459696,77.994581,-181.3972)" />
          <path
             id="path3243"
             d="m 136.44989,-162.63656 c -1.01544,0.0695 -2.00241,0.22675 -2.99979,0.34088 l -0.0682,0 -2.3862,13.02182 c -3.88931,0.88573 -7.54836,2.3889 -10.84015,4.4315 l -10.70379,-7.704 c -2.89352,2.24644 -5.52659,4.86641 -7.84036,7.704 l 7.4313,10.84015 c -2.25635,3.44815 -3.95311,7.38543 -4.90875,11.52192 -1.6e-4,0.0195 -1.3e-4,0.0648 0,0.0682 l -12.953632,2.04531 c -0.236826,1.93433 -0.340886,3.93341 -0.340886,5.9314 0,1.63472 0.04514,3.2476 0.204531,4.84057 l 12.953637,2.31802 c 0.92127,4.49835 2.67136,8.699412 5.11328,12.408214 l -7.70401,10.567441 c 2.20638,2.739118 4.75361,5.232975 7.49948,7.431295 l 10.90832,-7.499475 c 3.81231,2.43194 8.06798,4.137253 12.68093,4.976924 l 2.04531,12.885457 c 1.45339,0.132301 2.94383,0.136357 4.43151,0.136357 2.10025,-3e-6 4.10641,-0.0796 6.13593,-0.340886 l 2.45437,-13.158165 c 4.37983,-1.089962 8.49425,-2.980788 12.06734,-5.522339 l 10.49926,7.635827 c 2.72278,-2.316487 5.2126,-4.979119 7.36312,-7.84036 l -7.63583,-11.044677 c 2.0679,-3.571363 3.50076,-7.511783 4.22698,-11.726453 l 12.88545,-2.04531 c 0.11301,-1.34466 0.13636,-2.64873 0.13636,-4.02244 0,-2.38721 -0.27747,-4.72785 -0.61359,-7.02224 l -13.08999,-2.38619 c -1.02581,-3.78786 -2.70892,-7.32189 -4.84057,-10.49926 l 7.704,-10.56744 c -2.38799,-2.9204 -5.11203,-5.61819 -8.11307,-7.90854 l -11.11285,7.63583 c -3.19395,-1.88897 -6.63109,-3.33835 -10.36291,-4.1588 l -2.04531,-12.95364 c -1.86161,-0.21898 -3.73855,-0.34088 -5.65869,-0.34088 -0.51896,0 -1.05306,-0.0163 -1.56808,0 -0.25107,0.008 -0.49952,-0.0146 -0.74994,0 -0.0678,0.004 -0.13683,-0.005 -0.20454,0 z m 1.7726,33.13403 c 0.24907,-0.0127 0.49775,0 0.74995,0 8.07025,0 14.65806,6.58781 14.65806,14.65807 0,8.07025 -6.58781,14.58988 -14.65806,14.58988 -8.07026,0 -14.58989,-6.51963 -14.58989,-14.58988 0,-7.81806 6.1187,-14.26626 13.83994,-14.65807 z"
             style="color:#000000;fill:url(#linearGradient3887);fill-opacity:1;fill-rule:nonzero;stroke:none;stroke-width:2.14599991;marker:none;visibility:visible;display:inline;overflow:visible"
             inkscape:r_cx="true"
             inkscape:r_cy="true" />
          <path
             transform="matrix(1.3232183,0,0,1.3232183,107.87054,-146.3437)"
             d="m 36.239223,23.781593 c 0,7.029438 -5.698484,12.727923 -12.727922,12.727923 -7.029437,0 -12.727922,-5.698485 -12.727922,-12.727923 0,-7.029437 5.698485,-12.727922 12.727922,-12.727922 7.029438,0 12.727922,5.698485 12.727922,12.727922 z"
             sodipodi:ry="12.727922"
             sodipodi:rx="12.727922"
             sodipodi:cy="23.781593"
             sodipodi:cx="23.511301"
             id="path3283"
             style="opacity:0.54316143;color:#000000;fill:none;stroke:#ffffff;stroke-width:1.62180054;stroke-linecap:butt;stroke-linejoin:miter;stroke-miterlimit:4;stroke-opacity:1;stroke-dasharray:none;stroke-dashoffset:0;marker:none;visibility:visible;display:inline;overflow:visible"
             sodipodi:type="arc"
             inkscape:r_cx="true"
             inkscape:r_cy="true" />
          <path
             sodipodi:nodetypes="ccccccccccccccccccccccccccccccccc"
             style="opacity:0.290639;color:#000000;fill:none;stroke:#ffffff;stroke-width:2.14599681;stroke-linecap:butt;stroke-linejoin:miter;stroke-miterlimit:4;stroke-opacity:1;stroke-dasharray:none;stroke-dashoffset:0;marker:none;visibility:visible;display:inline;overflow:visible"
             d="m 134.93971,-160.05922 -1.91591,12.60786 c -3.64556,0.83022 -10.3514,3.36939 -13.43689,5.28398 l -10.19281,-7.60788 c -2.71217,2.10566 -2.89817,2.24845 -5.06693,4.90821 l 7.36978,10.93004 c -2.11494,3.23205 -4.65524,8.99172 -5.56733,13.10763 0,0 -12.91417,2.17696 -12.91417,2.17696 -0.221984,1.8131 -0.1153,5.6937 0.0341,7.18683 l 12.33566,2.22222 c 0.86354,4.21644 4.09506,11.003417 6.38394,14.479782 l -7.80071,10.306282 c 2.06809,2.567453 2.482,2.802395 5.05577,4.862942 l 10.43091,-7.64198 c 3.57339,2.279525 10.66623,5.052487 14.99008,5.839534 l 1.71192,12.449135 c 1.3623,0.123995 5.12578,0.471851 7.02811,0.226937 l 1.91591,-12.959427 c 4.10533,-1.02165 11.19883,-3.933454 14.54799,-6.315723 l 10.41975,7.528506 c 2.55214,-2.171304 2.57501,-2.498476 4.59075,-5.180397 l -7.72135,-10.975303 c 1.9383,-3.347543 4.44455,-9.894338 5.12525,-13.844868 l 12.64197,-2.09759 c 0.1059,-1.26039 0.11107,-4.7752 -0.204,-6.92579 l -12.88006,-2.22222 c -0.96151,-3.55046 -4.26125,-9.94835 -6.2593,-12.92659 l 8.18637,-10.30628 c -2.23832,-2.73736 -3.07057,-3.11295 -5.88352,-5.25976 l -10.78247,7.72134 c -2.99378,-1.77058 -8.96362,-4.46968 -12.46156,-5.23872 l -1.90476,-12.33566 c -1.74494,-0.20526 -6.77929,-0.11412 -7.77649,0 z"
             id="path3285"
             inkscape:r_cx="true"
             inkscape:r_cy="true" />
          <path
             sodipodi:nodetypes="cccccccccsccccccccccccccccccccsccccc"
             inkscape:r_cy="true"
             inkscape:r_cx="true"
             id="path3767"
             d="m 109.41756,-151.15634 c -2.89353,2.24644 -4.15735,3.59424 -6.47112,6.43184 l 7.30167,10.65479 c -2.25635,3.4306 -4.63171,8.94229 -5.03782,12.29346 0,0 -13.010116,2.24084 -13.010116,2.24084 -0.148016,1.20896 -0.372623,3.97633 -0.372623,3.97633 l 0.379363,3.35312 c 0.917908,0.18956 1.802971,0.36593 2.74956,0.46944 l 1.073,-3.28606 c 0.738311,0.0611 1.458534,0.13412 2.213061,0.13412 0.753691,0 1.541809,-0.0726 2.280125,-0.13412 l 1.00593,3.28606 c 0.94701,-0.10352 1.89872,-0.27987 2.81663,-0.46944 l 0,-3.35312 c 1.47163,-0.34255 2.85847,-0.83213 4.22493,-1.40831 l 2.01188,2.74956 c 0.86344,-0.39078 1.66442,-0.80651 2.48131,-1.27419 l -1.073,-3.219 c 1.28166,-0.77738 2.49312,-1.70681 3.62137,-2.68249 l 2.74956,2.01187 c 0.69881,-0.63646 1.37583,-1.31305 2.01187,-2.01187 l -2.01187,-2.6825 c 0.9761,-1.12825 1.83805,-2.33889 2.61544,-3.62137 l 3.21899,1.00593 c 0.46768,-0.81729 0.95131,-1.61828 1.34125,-2.48131 l -2.74956,-2.01187 c 0.57618,-1.36646 0.99787,-2.7533 1.34125,-4.22493 l 3.42019,0 c 0.18955,-0.91791 0.29928,-1.86962 0.40237,-2.81663 l -3.219,-1.00593 c 0.0619,-0.7379 0.13413,-1.52602 0.13413,-2.28013 0,-0.75411 -0.073,-1.47433 -0.13413,-2.21306 l 3.219,-1.00593 c -0.0978,-0.90108 -0.2266,-1.80693 -0.40237,-2.6825 -2.46238,0.8569 -5.47801,2.47459 -7.65802,3.82732 l -10.47325,-7.56992 z"
             style="opacity:0.4192825;color:#000000;fill:#ffffff;fill-opacity:1;fill-rule:nonzero;stroke:none;stroke-width:1;marker:none;visibility:visible;display:inline;overflow:visible" />
          <path
             inkscape:r_cy="true"
             inkscape:r_cx="true"
             id="path3770"
             d="m 167.64651,-127.72056 c -0.82359,0.38924 -1.60228,0.82783 -2.38936,1.27803 l 1.22247,3.72297 c -1.49597,0.90625 -2.90725,1.97365 -4.22307,3.11173 l -3.1673,-2.3338 c -0.81566,0.7423 -1.59184,1.51847 -2.33379,2.3338 l 2.33379,3.16729 c -1.13807,1.31617 -2.20512,2.72745 -3.11173,4.22307 l -1.16689,-0.38897 c -0.10233,1.50281 -0.50727,2.92175 -1.11134,4.22306 l 0.22227,0.1667 c -0.67203,1.59379 -1.21152,3.28424 -1.61143,5.001 l -3.1673,0 c -0.29246,0.18338 -0.58061,0.39714 -0.88907,0.55567 -0.16818,0.89116 -0.28952,1.75398 -0.38896,2.667195 l 3.77853,1.222464 c -0.0717,0.861137 -0.11114,1.732239 -0.11114,2.611633 -1e-5,0.879732 0.0395,1.750493 0.11114,2.61163 l -3.77853,1.222464 c 0.12022,1.104663 0.27896,2.207524 0.5001,3.278431 l 3.94523,-0.05556 c 0.27494,1.180271 0.65037,2.376562 1.05576,3.500697 1.59859,-0.616503 3.16285,-1.352376 4.61203,-2.222665 -0.88326,-2.609622 -1.38916,-5.427461 -1.38916,-8.334991 0,-11.154758 7.06544,-20.680248 16.94782,-24.338178 l -2.3338,-0.38897 c -0.4781,-1.76543 -1.0973,-3.49495 -1.88927,-5.11212 -0.0233,-0.0476 -0.032,-0.11928 -0.0556,-0.16671 l -0.11114,-0.11114 -1.5003,-1.44473 z"
             style="opacity:0.4192825;color:#000000;fill:#ffffff;fill-opacity:1;fill-rule:nonzero;stroke:none;stroke-width:1;marker:none;visibility:visible;display:inline;overflow:visible" />
        </g>
      </g>
    </g>
  </g>
</svg>
